<svg width="40" height="40" viewBox="0 0 40 40" fill="none" xmlns="http://www.w3.org/2000/svg">
<path d="M6 36.25C5.36133 36.25 4.82667 36.0347 4.396 35.604C3.96533 35.1734 3.75 34.6387 3.75 34V28.042C3.75 27.792 3.80567 27.535 3.917 27.271C4.02767 27.007 4.19433 26.75 4.417 26.5L18.708 12.208L17.708 11.167C17.208 10.6944 16.972 10.111 17 9.41702C17.028 8.72236 17.292 8.12502 17.792 7.62502C18.264 7.15302 18.861 6.92402 19.583 6.93802C20.3057 6.95136 20.9307 7.19436 21.458 7.66702L23.25 9.45802L28 4.58302C28.6113 4.02769 29.264 3.75702 29.958 3.77102C30.6527 3.78502 31.2917 4.08369 31.875 4.66702L35.333 8.16702C35.9163 8.72236 36.222 9.36102 36.25 10.083C36.278 10.8057 36.0003 11.4447 35.417 12L30.542 16.792L32.375 18.667C32.847 19.167 33.083 19.7574 33.083 20.438C33.083 21.118 32.847 21.708 32.375 22.208C31.875 22.708 31.2777 22.958 30.583 22.958C29.889 22.958 29.3057 22.708 28.833 22.208L27.792 21.25L13.5 35.583C13.25 35.8057 12.993 35.9724 12.729 36.083C12.465 36.1944 12.208 36.25 11.958 36.25H6ZM8.167 31.833H11.083L25.167 17.75L22.25 14.833L8.167 28.917V31.833ZM27.417 14.417L31.833 10.083L30 8.25002L25.583 12.583L27.417 14.417ZM27.417 14.417L25.583 12.583L27.417 14.417Z" fill="white"/>
</svg>
