<svg width="40" height="40" viewBox="0 0 40 40" fill="none" xmlns="http://www.w3.org/2000/svg">
<path d="M27.958 25.167V12.042H14.833V7.625H27.958C29.1527 7.625 30.1873 8.06267 31.062 8.938C31.9373 9.81267 32.375 10.8473 32.375 12.042V25.167H27.958ZM30.167 38.667C29.5277 38.667 28.9997 38.4517 28.583 38.021C28.1663 37.5903 27.958 37.0693 27.958 36.458V32.333H12.042C10.8473 32.333 9.81267 31.9027 8.938 31.042C8.06267 30.1807 7.625 29.139 7.625 27.917V12.042H3.542C2.90267 12.042 2.38167 11.8267 1.979 11.396C1.57633 10.9653 1.375 10.4583 1.375 9.875C1.375 9.23633 1.57633 8.70167 1.979 8.271C2.38167 7.84033 2.90267 7.625 3.542 7.625H7.625V3.542C7.625 2.90267 7.84733 2.38167 8.292 1.979C8.736 1.57633 9.24967 1.375 9.833 1.375C10.4723 1.375 11.0003 1.57633 11.417 1.979C11.8337 2.38167 12.042 2.90267 12.042 3.542V27.917H36.458C37.0973 27.917 37.6253 28.139 38.042 28.583C38.4587 29.0277 38.667 29.5417 38.667 30.125C38.667 30.7637 38.4587 31.2913 38.042 31.708C37.6253 32.1247 37.0973 32.333 36.458 32.333H32.375V36.458C32.375 37.0693 32.1527 37.5903 31.708 38.021C31.264 38.4517 30.7503 38.667 30.167 38.667Z" fill="white"/>
</svg>
