<svg width="40" height="40" viewBox="0 0 40 40" fill="none" xmlns="http://www.w3.org/2000/svg">
<path d="M10.75 36.208C9.55534 36.208 8.51367 35.7777 7.62501 34.917C6.73634 34.0557 6.29201 33.014 6.29201 31.792V9.5H6.00001C5.38867 9.5 4.87467 9.29167 4.45801 8.875C4.04134 8.45833 3.83301 7.94433 3.83301 7.333C3.83301 6.69433 4.04134 6.15967 4.45801 5.729C4.87467 5.29833 5.38867 5.083 6.00001 5.083H13.917C13.917 4.47233 14.1253 3.95167 14.542 3.521C14.9587 3.09033 15.4863 2.875 16.125 2.875H23.875C24.5137 2.875 25.0483 3.09033 25.479 3.521C25.9097 3.95167 26.125 4.47233 26.125 5.083H34C34.6387 5.083 35.1663 5.30533 35.583 5.75C35.9997 6.19467 36.208 6.70867 36.208 7.292C36.208 7.93067 35.9997 8.45833 35.583 8.875C35.1663 9.29167 34.6387 9.5 34 9.5H33.667V31.792C33.667 33.014 33.2363 34.0557 32.375 34.917C31.5137 35.7777 30.472 36.208 29.25 36.208H10.75ZM10.75 9.5V31.792H29.25V9.5H10.75ZM14.542 26.917C14.542 27.389 14.7223 27.7987 15.083 28.146C15.4443 28.4933 15.861 28.667 16.333 28.667C16.8057 28.667 17.2293 28.4933 17.604 28.146C17.9793 27.7987 18.167 27.389 18.167 26.917V14.417C18.167 13.9443 17.9793 13.5207 17.604 13.146C17.2293 12.7707 16.8057 12.583 16.333 12.583C15.861 12.583 15.4443 12.7707 15.083 13.146C14.7223 13.5207 14.542 13.9443 14.542 14.417V26.917ZM21.875 26.917C21.875 27.389 22.0627 27.7987 22.438 28.146C22.8127 28.4933 23.236 28.667 23.708 28.667C24.1807 28.667 24.5973 28.4933 24.958 28.146C25.3193 27.7987 25.5 27.389 25.5 26.917V14.417C25.5 13.9443 25.3193 13.5207 24.958 13.146C24.5973 12.7707 24.167 12.583 23.667 12.583C23.1943 12.583 22.7777 12.7707 22.417 13.146C22.0557 13.5207 21.875 13.9443 21.875 14.417V26.917ZM10.75 9.5V31.792V9.5Z" fill="white"/>
</svg>
