<svg width="40" height="40" viewBox="0 0 40 40" fill="none" xmlns="http://www.w3.org/2000/svg">
<path d="M23 30.333V20.958C23 20.3193 23.2013 19.7917 23.604 19.375C24.0067 18.9583 24.5277 18.75 25.167 18.75C25.7777 18.75 26.3053 18.9583 26.75 19.375C27.1947 19.7917 27.417 20.3193 27.417 20.958V30.375L29.875 27.917C30.2917 27.5003 30.8057 27.2987 31.417 27.312C32.0277 27.326 32.5413 27.5413 32.958 27.958C33.3747 28.4027 33.583 28.9167 33.583 29.5C33.583 30.0833 33.361 30.611 32.917 31.083L26.75 37.25C26.5553 37.4447 26.3193 37.5973 26.042 37.708C25.764 37.8193 25.486 37.875 25.208 37.875C24.9307 37.875 24.646 37.8193 24.354 37.708C24.0627 37.5973 23.8337 37.4447 23.667 37.25L17.417 31C17.0277 30.5833 16.833 30.0763 16.833 29.479C16.833 28.8817 17.0413 28.361 17.458 27.917C17.8747 27.5277 18.3887 27.333 19 27.333C19.6113 27.333 20.139 27.5553 20.583 28L23 30.333ZM12.583 9.583L10.167 12C9.72233 12.4167 9.20133 12.625 8.60399 12.625C8.00666 12.625 7.49966 12.4027 7.08299 11.958C6.63899 11.5693 6.41699 11.0627 6.41699 10.438C6.41699 9.81267 6.63899 9.29167 7.08299 8.875L13.292 2.625C13.4587 2.45833 13.6807 2.31267 13.958 2.188C14.236 2.06267 14.514 2 14.792 2C15.0693 2 15.347 2.06267 15.625 2.188C15.903 2.31267 16.153 2.45833 16.375 2.625L22.583 8.875C22.9997 9.31967 23.208 9.84733 23.208 10.458C23.208 11.0693 22.986 11.5693 22.542 11.958C22.1253 12.4027 21.6113 12.625 21 12.625C20.3887 12.625 19.861 12.4167 19.417 12L17 9.542V19C17 19.6113 16.7847 20.132 16.354 20.562C15.9233 20.9927 15.3887 21.208 14.75 21.208C14.1387 21.208 13.6247 20.9927 13.208 20.562C12.7913 20.132 12.583 19.6113 12.583 19V9.583Z" fill="white"/>
</svg>
