<svg width="40" height="40" viewBox="0 0 40 40" fill="none" xmlns="http://www.w3.org/2000/svg">
<path d="M6.41701 35.792C5.75034 35.792 5.21534 35.5907 4.81201 35.188C4.40934 34.7847 4.20801 34.2497 4.20801 33.583V23.625C4.20801 23.0137 4.42334 22.486 4.85401 22.042C5.28467 21.5973 5.79167 21.375 6.37501 21.375C6.98634 21.375 7.51401 21.5973 7.95801 22.042C8.40267 22.486 8.62501 23.0137 8.62501 23.625V28.25L28.292 8.58299H23.625C23.0137 8.58299 22.4927 8.36799 22.062 7.93799C21.632 7.50733 21.417 6.98633 21.417 6.37499C21.417 5.79166 21.632 5.27766 22.062 4.83299C22.4927 4.38899 23.0137 4.16699 23.625 4.16699H33.625C34.2637 4.16699 34.7913 4.37533 35.208 4.79199C35.6247 5.20866 35.833 5.73633 35.833 6.37499V16.375C35.833 16.9863 35.611 17.5073 35.167 17.938C34.7223 18.368 34.2083 18.583 33.625 18.583C33.0137 18.583 32.4927 18.368 32.062 17.938C31.632 17.5073 31.417 16.9863 31.417 16.375V11.708L11.75 31.375H16.375C16.9863 31.375 17.514 31.5973 17.958 32.042C18.4027 32.486 18.625 33.0137 18.625 33.625C18.625 34.2083 18.4027 34.7153 17.958 35.146C17.514 35.5767 16.9863 35.792 16.375 35.792H6.41701Z" fill="white"/>
</svg>
