<svg width="40" height="40" viewBox="0 0 40 40" fill="none" xmlns="http://www.w3.org/2000/svg">
<path d="M9.125 32.292C8.48633 32.292 7.95167 32.0767 7.521 31.646C7.09033 31.2153 6.875 30.6807 6.875 30.042V9.917C6.875 9.30567 7.09033 8.78467 7.521 8.354C7.95167 7.92333 8.48633 7.708 9.125 7.708C9.76367 7.708 10.2847 7.92333 10.688 8.354C11.0907 8.78467 11.292 9.30567 11.292 9.917V30.042C11.292 30.6807 11.0907 31.2153 10.688 31.646C10.2847 32.0767 9.76367 32.292 9.125 32.292ZM29.625 29.917L17.833 21.833C17.1663 21.4163 16.833 20.8053 16.833 20C16.833 19.1947 17.1663 18.5837 17.833 18.167L29.625 10.042C30.347 9.56933 31.111 9.54133 31.917 9.958C32.7223 10.3747 33.125 11.0277 33.125 11.917V28.083C33.125 28.9723 32.736 29.6253 31.958 30.042C31.1807 30.4587 30.403 30.417 29.625 29.917ZM28.708 23.917V16.083L22.958 20L28.708 23.917Z" fill="white"/>
</svg>
