<svg width="40" height="40" viewBox="0 0 40 40" fill="none" xmlns="http://www.w3.org/2000/svg">
<path d="M30.917 32.292C30.2503 32.292 29.7153 32.0767 29.312 31.646C28.9093 31.2153 28.708 30.6807 28.708 30.042V9.917C28.708 9.30567 28.9163 8.78467 29.333 8.354C29.7497 7.92333 30.2777 7.708 30.917 7.708C31.5277 7.708 32.0483 7.92333 32.479 8.354C32.9097 8.78467 33.125 9.30567 33.125 9.917V30.042C33.125 30.6807 32.9097 31.2153 32.479 31.646C32.0483 32.0767 31.5277 32.292 30.917 32.292ZM10.375 29.917C9.597 30.417 8.81933 30.4587 8.042 30.042C7.264 29.6253 6.875 28.9723 6.875 28.083V11.917C6.875 11.0277 7.27767 10.3747 8.083 9.958C8.889 9.54133 9.653 9.56933 10.375 10.042L22.208 18.167C22.8473 18.5837 23.167 19.1947 23.167 20C23.167 20.8053 22.8473 21.4163 22.208 21.833L10.375 29.917ZM11.292 23.917L17.042 20L11.292 16.083V23.917Z" fill="white"/>
</svg>
