<svg width="40" height="40" viewBox="0 0 40 40" fill="none" xmlns="http://www.w3.org/2000/svg">
<path d="M6.208 32.5C5.56933 32.5 5.04167 32.2847 4.625 31.854C4.20833 31.4233 4 30.9027 4 30.292V24.625C4 22.125 4.861 20.0207 6.583 18.312C8.30567 16.604 10.403 15.75 12.875 15.75H27.583L23.667 11.75C23.2223 11.3333 23.007 10.8333 23.021 10.25C23.035 9.66667 23.264 9.15267 23.708 8.70801C24.0973 8.29134 24.5973 8.08301 25.208 8.08301C25.8193 8.08301 26.3333 8.29134 26.75 8.70801L34.458 16.417C34.6527 16.611 34.8127 16.847 34.938 17.125C35.0627 17.403 35.125 17.6807 35.125 17.958C35.125 18.236 35.0627 18.514 34.938 18.792C34.8127 19.0693 34.6527 19.2913 34.458 19.458L26.708 27.208C26.2913 27.6527 25.7847 27.868 25.188 27.854C24.5907 27.84 24.0837 27.611 23.667 27.167C23.2503 26.7223 23.042 26.2013 23.042 25.604C23.042 25.0067 23.264 24.486 23.708 24.042L27.583 20.167H12.875C11.625 20.167 10.5763 20.5973 9.729 21.458C8.88167 22.3193 8.458 23.375 8.458 24.625V30.292C8.458 30.9027 8.236 31.4233 7.792 31.854C7.34733 32.2847 6.81933 32.5 6.208 32.5Z" fill="white"/>
</svg>
