<svg width="40" height="40" viewBox="0 0 40 40" fill="none" xmlns="http://www.w3.org/2000/svg">
<path d="M6.37499 31.333C5.76366 31.333 5.24266 31.1247 4.81199 30.708C4.38199 30.2913 4.16699 29.7637 4.16699 29.125C4.16699 28.5137 4.38199 27.9927 4.81199 27.562C5.24266 27.132 5.76366 26.917 6.37499 26.917H33.667C34.2503 26.917 34.7573 27.132 35.188 27.562C35.618 27.9927 35.833 28.5137 35.833 29.125C35.833 29.7637 35.618 30.2913 35.188 30.708C34.7573 31.1247 34.2503 31.333 33.667 31.333H6.37499ZM6.37499 22.208C5.76366 22.208 5.24266 21.9927 4.81199 21.562C4.38199 21.132 4.16699 20.6113 4.16699 20C4.16699 19.3613 4.38199 18.8337 4.81199 18.417C5.24266 18.0003 5.76366 17.792 6.37499 17.792H33.667C34.2503 17.792 34.7573 18.0003 35.188 18.417C35.618 18.8337 35.833 19.3613 35.833 20C35.833 20.6113 35.618 21.132 35.188 21.562C34.7573 21.9927 34.2503 22.208 33.667 22.208H6.37499ZM6.37499 13.083C5.76366 13.083 5.24266 12.861 4.81199 12.417C4.38199 11.9723 4.16699 11.4583 4.16699 10.875C4.16699 10.2363 4.38199 9.70167 4.81199 9.271C5.24266 8.84033 5.76366 8.625 6.37499 8.625H33.667C34.2503 8.625 34.7573 8.84033 35.188 9.271C35.618 9.70167 35.833 10.2223 35.833 10.833C35.833 11.4723 35.618 12.0073 35.188 12.438C34.7573 12.868 34.2503 13.083 33.667 13.083H6.37499Z" fill="white"/>
</svg>
