<svg width="40" height="40" viewBox="0 0 40 40" fill="none" xmlns="http://www.w3.org/2000/svg">
<path d="M14.125 29.583C13.6803 29.111 13.458 28.5764 13.458 27.979C13.458 27.3817 13.6803 26.8747 14.125 26.458L20.583 19.958L14.083 13.458C13.639 13.0414 13.424 12.5207 13.438 11.896C13.4513 11.2707 13.6803 10.7497 14.125 10.333C14.5417 9.88902 15.0487 9.67402 15.646 9.68802C16.2433 9.70135 16.7503 9.91635 17.167 10.333L25.292 18.417C25.486 18.611 25.6457 18.847 25.771 19.125C25.8957 19.403 25.958 19.6807 25.958 19.958C25.958 20.264 25.8957 20.5487 25.771 20.812C25.6457 21.076 25.486 21.3054 25.292 21.5L17.208 29.583C16.7913 29.9997 16.2777 30.2014 15.667 30.188C15.0557 30.174 14.5417 29.9724 14.125 29.583Z" fill="white"/>
</svg>
