<svg width="40" height="40" viewBox="0 0 40 40" fill="none" xmlns="http://www.w3.org/2000/svg">
<path d="M19.875 34.583C15.8197 34.583 12.3753 33.1663 9.54199 30.333C6.70866 27.4997 5.29199 24.0553 5.29199 20C5.29199 15.972 6.70866 12.5347 9.54199 9.68799C12.3753 6.84066 15.8337 5.41699 19.917 5.41699C22.2777 5.41699 24.4303 5.89599 26.375 6.85399C28.3197 7.81266 29.9863 9.18066 31.375 10.958V7.08299C31.375 6.61099 31.5277 6.21533 31.833 5.89599C32.139 5.57666 32.542 5.41699 33.042 5.41699C33.514 5.41699 33.9167 5.57666 34.25 5.89599C34.5833 6.21533 34.75 6.61099 34.75 7.08299V15.958C34.75 16.5973 34.5347 17.1253 34.104 17.542C33.6733 17.9587 33.1387 18.167 32.5 18.167H23.625C23.153 18.167 22.7573 18.014 22.438 17.708C22.118 17.4027 21.958 17.014 21.958 16.542C21.958 16.014 22.118 15.5973 22.438 15.292C22.7573 14.986 23.153 14.833 23.625 14.833H28.792C27.764 13.3057 26.507 12.0907 25.021 11.188C23.535 10.2847 21.8197 9.83299 19.875 9.83299C17.0417 9.83299 14.639 10.8193 12.667 12.792C10.6943 14.764 9.70799 17.1667 9.70799 20C9.70799 22.8333 10.6943 25.236 12.667 27.208C14.639 29.1807 17.0417 30.167 19.875 30.167C21.7083 30.167 23.4373 29.6807 25.062 28.708C26.6873 27.736 27.9443 26.4167 28.833 24.75C29.0277 24.4167 29.3333 24.132 29.75 23.896C30.1667 23.66 30.5693 23.542 30.958 23.542C31.8473 23.542 32.5073 23.8473 32.938 24.458C33.368 25.0693 33.3747 25.736 32.958 26.458C31.736 28.9027 29.9513 30.868 27.604 32.354C25.2567 33.84 22.6803 34.583 19.875 34.583Z" fill="white"/>
</svg>
