<svg width="40" height="40" viewBox="0 0 40 40" fill="none" xmlns="http://www.w3.org/2000/svg">
<path d="M19.167 25.542L24.792 21.833C25.1253 21.611 25.389 21.3473 25.583 21.042C25.7777 20.736 25.875 20.3887 25.875 20C25.875 19.6387 25.7777 19.2913 25.583 18.958C25.389 18.6247 25.1253 18.361 24.792 18.167L19.167 14.458C18.417 13.986 17.653 13.9513 16.875 14.354C16.097 14.7567 15.708 15.4027 15.708 16.292V23.708C15.708 24.5973 16.097 25.2503 16.875 25.667C17.653 26.0837 18.417 26.042 19.167 25.542ZM8.20799 36.208C6.98599 36.208 5.94433 35.7777 5.08299 34.917C4.22233 34.0557 3.79199 33.014 3.79199 31.792V8.208C3.79199 6.986 4.22233 5.93733 5.08299 5.062C5.94433 4.18733 6.98599 3.75 8.20799 3.75H31.792C33.014 3.75 34.0627 4.18733 34.938 5.062C35.8127 5.93733 36.25 6.986 36.25 8.208V31.792C36.25 33.014 35.8127 34.0557 34.938 34.917C34.0627 35.7777 33.014 36.208 31.792 36.208H8.20799ZM8.20799 31.792H31.792V8.208H8.20799V31.792ZM8.20799 31.792V8.208V31.792Z" fill="white"/>
</svg>
