<svg width="40" height="40" viewBox="0 0 40 40" fill="none" xmlns="http://www.w3.org/2000/svg">
<path d="M9.83299 37.833C8.63899 37.833 7.60433 37.3957 6.72899 36.521C5.85433 35.6457 5.41699 34.611 5.41699 33.417V16.625C5.41699 15.375 5.85433 14.3193 6.72899 13.458C7.60433 12.5973 8.63899 12.167 9.83299 12.167H11.375V9.417C11.375 6.97233 12.2153 4.896 13.896 3.188C15.5767 1.47933 17.6113 0.625 20 0.625C22.3887 0.625 24.4233 1.47933 26.104 3.188C27.7847 4.896 28.625 6.97233 28.625 9.417V12.167H30.167C31.361 12.167 32.4027 12.5973 33.292 13.458C34.1807 14.3193 34.625 15.375 34.625 16.625V33.417C34.625 34.611 34.1807 35.6457 33.292 36.521C32.4027 37.3957 31.361 37.833 30.167 37.833H9.83299ZM15.792 12.167H24.208V9.417C24.208 8.167 23.8053 7.13233 23 6.313C22.1947 5.493 21.1947 5.083 20 5.083C18.8333 5.083 17.8403 5.493 17.021 6.313C16.2017 7.13233 15.792 8.167 15.792 9.417V12.167ZM9.83299 33.417H30.167V16.625H9.83299V33.417ZM20 28.333C20.9167 28.333 21.6873 28.0137 22.312 27.375C22.9373 26.7363 23.25 25.9723 23.25 25.083C23.25 24.2223 22.9373 23.4517 22.312 22.771C21.6873 22.0903 20.9167 21.75 20 21.75C19.0833 21.75 18.3127 22.0903 17.688 22.771C17.0627 23.4517 16.75 24.2223 16.75 25.083C16.75 25.9723 17.0627 26.7363 17.688 27.375C18.3127 28.0137 19.0833 28.333 20 28.333Z" fill="white"/>
</svg>
