<svg width="40" height="40" viewBox="0 0 40 40" fill="none" xmlns="http://www.w3.org/2000/svg">
<path d="M31.375 34.75L21.917 25.292C21.0837 25.8753 20.1253 26.3473 19.042 26.708C17.9587 27.0693 16.792 27.25 15.542 27.25C12.264 27.25 9.507 26.125 7.271 23.875C5.035 21.625 3.917 18.889 3.917 15.667C3.917 12.4443 5.035 9.715 7.271 7.479C9.507 5.243 12.236 4.125 15.458 4.125C18.6807 4.125 21.41 5.25 23.646 7.5C25.882 9.75 27 12.4723 27 15.667C27 16.9723 26.8263 18.146 26.479 19.188C26.1317 20.2293 25.6387 21.1943 25 22.083L34.583 31.667C34.9997 32.0837 35.208 32.5973 35.208 33.208C35.208 33.8193 34.986 34.3473 34.542 34.792C34.1253 35.2087 33.6043 35.417 32.979 35.417C32.3543 35.417 31.8197 35.1947 31.375 34.75ZM15.458 22.833C17.486 22.833 19.1807 22.1457 20.542 20.771C21.9027 19.3957 22.583 17.708 22.583 15.708C22.583 13.6807 21.9027 11.9793 20.542 10.604C19.1807 9.22933 17.486 8.542 15.458 8.542C13.4307 8.542 11.7363 9.22933 10.375 10.604C9.01367 11.9793 8.333 13.6807 8.333 15.708C8.333 17.708 9.01367 19.3957 10.375 20.771C11.7363 22.1457 13.4307 22.833 15.458 22.833ZM15.417 20.25C15.0277 20.25 14.7013 20.111 14.438 19.833C14.174 19.5557 14.042 19.2087 14.042 18.792V17.083H12.208C11.8193 17.083 11.493 16.9373 11.229 16.646C10.965 16.354 10.833 16.0137 10.833 15.625C10.833 15.2363 10.979 14.91 11.271 14.646C11.5623 14.382 11.9027 14.25 12.292 14.25H14.042V12.417C14.042 12.0557 14.1807 11.736 14.458 11.458C14.736 11.1807 15.0693 11.042 15.458 11.042C15.8193 11.042 16.146 11.1877 16.438 11.479C16.7293 11.771 16.875 12.0973 16.875 12.458V14.25H18.667C19.0277 14.25 19.34 14.389 19.604 14.667C19.868 14.9443 20 15.2777 20 15.667C20 16.0277 19.861 16.354 19.583 16.646C19.3057 16.9373 18.9863 17.083 18.625 17.083H16.875V18.875C16.875 19.2637 16.7293 19.59 16.438 19.854C16.146 20.118 15.8057 20.25 15.417 20.25Z" fill="white"/>
</svg>
