<svg width="444" height="520" viewBox="0 0 444 520" fill="none" xmlns="http://www.w3.org/2000/svg">
<rect width="40" height="40" rx="10" fill="black" fill-opacity="0.2"/>
<path fill-rule="evenodd" clip-rule="evenodd" d="M33.2525 9.95989C33.2525 7.75845 31.4678 5.97388 29.2663 5.97388C24.2339 5.97388 15.6269 5.97388 10.5944 5.97388C8.39297 5.97388 6.6084 7.75845 6.6084 9.95989C6.6084 15.2659 6.6084 24.5949 6.6084 29.9007C6.6084 32.1021 8.39297 33.8867 10.5944 33.8867C15.6269 33.8867 24.2339 33.8867 29.2663 33.8867C31.4678 33.8867 33.2525 32.1021 33.2525 29.9007C33.2525 24.5949 33.2525 15.2659 33.2525 9.95989Z" stroke="white" stroke-width="4" stroke-miterlimit="1.5" stroke-linecap="round" stroke-linejoin="round"/>
<path fill-rule="evenodd" clip-rule="evenodd" d="M7.34814 28.7587L14.1148 19.243L18.9255 26.0625L24.4764 15.1194L33.2522 28.4943L29.9241 32.629L9.5668 33.8866L7.34814 28.7587Z" fill="white"/>
<rect x="80" width="40" height="40" rx="10" fill="black" fill-opacity="0.2"/>
<path d="M102.208 20C101.569 20 101.042 19.7917 100.625 19.375C100.208 18.9583 100 18.4307 100 17.792V7.79201C100 7.18067 100.215 6.65267 100.646 6.20801C101.077 5.76401 101.597 5.54201 102.208 5.54201C102.819 5.54201 103.347 5.76401 103.792 6.20801C104.236 6.65267 104.458 7.18067 104.458 7.79201V12.458L113.208 3.70801C113.625 3.29134 114.139 3.08301 114.75 3.08301C115.361 3.08301 115.875 3.29134 116.292 3.70801C116.709 4.12467 116.917 4.63867 116.917 5.25001C116.917 5.86134 116.709 6.37534 116.292 6.79201L107.542 15.542H112.208C112.819 15.542 113.347 15.764 113.792 16.208C114.236 16.6527 114.458 17.1807 114.458 17.792C114.458 18.4027 114.236 18.9233 113.792 19.354C113.347 19.7847 112.819 20 112.208 20H102.208ZM83.708 36.292C83.2913 35.8753 83.083 35.3613 83.083 34.75C83.083 34.1387 83.2913 33.6247 83.708 33.208L92.5 24.417H87.792C87.1807 24.417 86.6597 24.2017 86.229 23.771C85.7983 23.3403 85.583 22.8193 85.583 22.208C85.583 21.5973 85.7983 21.0767 86.229 20.646C86.6597 20.2153 87.1807 20 87.792 20H97.792C98.4307 20 98.9583 20.2083 99.375 20.625C99.7917 21.0417 100 21.5693 100 22.208V32.208C100 32.8193 99.7847 33.3403 99.354 33.771C98.9233 34.2017 98.4027 34.417 97.792 34.417C97.1807 34.417 96.6597 34.2017 96.229 33.771C95.7983 33.3403 95.583 32.8193 95.583 32.208V27.5L86.792 36.292C86.3753 36.7087 85.8613 36.917 85.25 36.917C84.6387 36.917 84.1247 36.7087 83.708 36.292Z" fill="white"/>
<rect x="160" width="40" height="40" rx="10" fill="black" fill-opacity="0.2"/>
<path d="M166 14.75C165.361 14.75 164.834 14.5487 164.417 14.146C164 13.7433 163.792 13.2087 163.792 12.542V8.208C163.792 6.986 164.222 5.93733 165.083 5.062C165.944 4.18733 166.986 3.75 168.208 3.75H172.583C173.222 3.75 173.743 3.96533 174.146 4.396C174.549 4.82667 174.75 5.34733 174.75 5.958C174.75 6.59733 174.549 7.13233 174.146 7.563C173.743 7.993 173.222 8.208 172.583 8.208H168.208V12.542C168.208 13.2087 167.986 13.7433 167.542 14.146C167.097 14.5487 166.583 14.75 166 14.75ZM168.208 36.208C166.986 36.208 165.944 35.7777 165.083 34.917C164.222 34.0557 163.792 33.014 163.792 31.792V27.417C163.792 26.7777 164 26.2567 164.417 25.854C164.834 25.4513 165.347 25.25 165.958 25.25C166.597 25.25 167.132 25.4513 167.562 25.854C167.993 26.2567 168.208 26.7777 168.208 27.417V31.792H172.583C173.222 31.792 173.743 32.014 174.146 32.458C174.549 32.9027 174.75 33.4167 174.75 34C174.75 34.6387 174.549 35.1663 174.146 35.583C173.743 35.9997 173.222 36.208 172.583 36.208H168.208ZM187.458 36.208C186.791 36.208 186.257 35.9997 185.854 35.583C185.451 35.1663 185.25 34.6527 185.25 34.042C185.25 33.4027 185.451 32.868 185.854 32.438C186.257 32.0073 186.791 31.792 187.458 31.792H191.792V27.417C191.792 26.7777 192.014 26.2567 192.458 25.854C192.903 25.4513 193.431 25.25 194.042 25.25C194.681 25.25 195.208 25.4513 195.625 25.854C196.042 26.2567 196.25 26.7777 196.25 27.417V31.792C196.25 33.014 195.813 34.0557 194.938 34.917C194.063 35.7777 193.014 36.208 191.792 36.208H187.458ZM194.042 14.75C193.403 14.75 192.868 14.5487 192.438 14.146C192.007 13.7433 191.792 13.2087 191.792 12.542V8.208H187.458C186.791 8.208 186.257 7.986 185.854 7.542C185.451 7.09733 185.25 6.56933 185.25 5.958C185.25 5.31933 185.451 4.79167 185.854 4.375C186.257 3.95833 186.791 3.75 187.458 3.75H191.792C193.014 3.75 194.063 4.18733 194.938 5.062C195.813 5.93733 196.25 6.986 196.25 8.208V12.542C196.25 13.2087 196.035 13.7433 195.604 14.146C195.173 14.5487 194.653 14.75 194.042 14.75Z" fill="white"/>
<rect x="240" width="40" height="40" rx="10" fill="black" fill-opacity="0.2"/>
<path d="M261.792 29.583L253.75 21.5C253.528 21.3053 253.361 21.076 253.25 20.812C253.139 20.5487 253.083 20.264 253.083 19.958C253.083 19.6807 253.139 19.403 253.25 19.125C253.361 18.847 253.528 18.611 253.75 18.417L261.833 10.333C262.25 9.91634 262.764 9.70801 263.375 9.70801C263.986 9.70801 264.514 9.91634 264.958 10.333C265.375 10.7497 265.576 11.2707 265.562 11.896C265.549 12.5207 265.334 13.0413 264.917 13.458L258.417 19.958L264.958 26.5C265.375 26.9167 265.583 27.4307 265.583 28.042C265.583 28.6527 265.375 29.1663 264.958 29.583C264.514 29.9997 263.979 30.208 263.354 30.208C262.729 30.208 262.209 29.9997 261.792 29.583Z" fill="white"/>
<rect x="160" y="400" width="40" height="40" rx="10" fill="black" fill-opacity="0.2"/>
<path fill-rule="evenodd" clip-rule="evenodd" d="M179.848 402.076H165.979C164.922 402.076 163.908 402.496 163.161 403.243C162.413 403.991 161.993 405.005 161.993 406.062V419.93H179.848V402.076Z" fill="white"/>
<path fill-rule="evenodd" clip-rule="evenodd" d="M179.848 419.888H161.993V433.757C161.993 434.814 162.413 435.828 163.161 436.575C163.908 437.323 164.922 437.743 165.979 437.743H179.848V419.888Z" fill="white" fill-opacity="0.7"/>
<path fill-rule="evenodd" clip-rule="evenodd" d="M197.702 419.888H179.848V437.743H193.716C194.773 437.743 195.787 437.323 196.535 436.575C197.282 435.828 197.702 434.814 197.702 433.757V419.888Z" fill="white"/>
<path fill-rule="evenodd" clip-rule="evenodd" d="M197.702 406.062C197.702 405.005 197.282 403.991 196.535 403.243C195.787 402.496 194.773 402.076 193.716 402.076H179.848V419.93H197.702V406.062Z" fill="white" fill-opacity="0.7"/>
<rect x="324" width="40" height="40" rx="10" fill="black" fill-opacity="0.2"/>
<path d="M330 36.25C329.361 36.25 328.827 36.0347 328.396 35.604C327.965 35.1734 327.75 34.6387 327.75 34V28.042C327.75 27.792 327.806 27.535 327.917 27.271C328.028 27.007 328.194 26.75 328.417 26.5L342.708 12.208L341.708 11.167C341.208 10.6944 340.972 10.111 341 9.41702C341.028 8.72236 341.292 8.12502 341.792 7.62502C342.264 7.15302 342.861 6.92402 343.583 6.93802C344.306 6.95136 344.931 7.19436 345.458 7.66702L347.25 9.45802L352 4.58302C352.611 4.02769 353.264 3.75702 353.958 3.77102C354.653 3.78502 355.292 4.08369 355.875 4.66702L359.333 8.16702C359.916 8.72236 360.222 9.36102 360.25 10.083C360.278 10.8057 360 11.4447 359.417 12L354.542 16.792L356.375 18.667C356.847 19.167 357.083 19.7574 357.083 20.438C357.083 21.118 356.847 21.708 356.375 22.208C355.875 22.708 355.278 22.958 354.583 22.958C353.889 22.958 353.306 22.708 352.833 22.208L351.792 21.25L337.5 35.583C337.25 35.8057 336.993 35.9724 336.729 36.083C336.465 36.1944 336.208 36.25 335.958 36.25H330ZM332.167 31.833H335.083L349.167 17.75L346.25 14.833L332.167 28.917V31.833ZM351.417 14.417L355.833 10.083L354 8.25002L349.583 12.583L351.417 14.417Z" fill="white"/>
<rect x="404" width="40" height="40" rx="10" fill="black" fill-opacity="0.2"/>
<path d="M412.208 36.208C410.986 36.208 409.944 35.7777 409.083 34.917C408.222 34.0557 407.792 33.014 407.792 31.792V8.208C407.792 6.986 408.222 5.93733 409.083 5.062C409.944 4.18733 410.986 3.75 412.208 3.75H431.083C431.694 3.75 432.278 3.868 432.833 4.104C433.389 4.34 433.861 4.66633 434.25 5.083L438.917 9.75C439.334 10.1387 439.66 10.611 439.896 11.167C440.132 11.7223 440.25 12.3057 440.25 12.917V31.792C440.25 33.014 439.813 34.0557 438.938 34.917C438.063 35.7777 437.014 36.208 435.792 36.208H412.208ZM435.792 13L431 8.208H412.208V31.792H435.792V13ZM424 29.458C425.25 29.458 426.326 29.0137 427.229 28.125C428.132 27.2363 428.583 26.167 428.583 24.917C428.583 23.639 428.139 22.5557 427.25 21.667C426.361 20.7777 425.278 20.333 424 20.333C422.75 20.333 421.674 20.7707 420.771 21.646C419.868 22.5207 419.417 23.597 419.417 24.875C419.417 26.153 419.861 27.2363 420.75 28.125C421.639 29.0137 422.722 29.458 424 29.458ZM416.375 16.417H427C427.639 16.417 428.166 16.2087 428.583 15.792C429 15.3753 429.208 14.8613 429.208 14.25V12.375C429.208 11.7637 429 11.2497 428.583 10.833C428.166 10.4163 427.639 10.208 427 10.208H416.375C415.764 10.208 415.25 10.4163 414.833 10.833C414.416 11.2497 414.208 11.7637 414.208 12.375V14.25C414.208 14.8613 414.416 15.3753 414.833 15.792C415.25 16.2087 415.764 16.417 416.375 16.417ZM412.208 13V31.792V8.208V13Z" fill="white"/>
<rect y="80" width="40" height="40" rx="10" fill="black" fill-opacity="0.2"/>
<path d="M27.958 105.167V92.042H14.833V87.625H27.958C29.1527 87.625 30.1873 88.0627 31.062 88.938C31.9373 89.8127 32.375 90.8473 32.375 92.042V105.167H27.958ZM30.167 118.667C29.5277 118.667 28.9997 118.452 28.583 118.021C28.1663 117.59 27.958 117.069 27.958 116.458V112.333H12.042C10.8473 112.333 9.81267 111.903 8.938 111.042C8.06267 110.181 7.625 109.139 7.625 107.917V92.042H3.542C2.90267 92.042 2.38167 91.8267 1.979 91.396C1.57633 90.9653 1.375 90.4583 1.375 89.875C1.375 89.2363 1.57633 88.7017 1.979 88.271C2.38167 87.8403 2.90267 87.625 3.542 87.625H7.625V83.542C7.625 82.9027 7.84733 82.3817 8.292 81.979C8.736 81.5763 9.24967 81.375 9.833 81.375C10.4723 81.375 11.0003 81.5763 11.417 81.979C11.8337 82.3817 12.042 82.9027 12.042 83.542V107.917H36.458C37.0973 107.917 37.6253 108.139 38.042 108.583C38.4587 109.028 38.667 109.542 38.667 110.125C38.667 110.764 38.4587 111.291 38.042 111.708C37.6253 112.125 37.0973 112.333 36.458 112.333H32.375V116.458C32.375 117.069 32.1527 117.59 31.708 118.021C31.264 118.452 30.7503 118.667 30.167 118.667Z" fill="white"/>
<rect x="80" y="80" width="40" height="40" rx="10" fill="black" fill-opacity="0.2"/>
<path d="M90.75 116.208C89.5553 116.208 88.5137 115.778 87.625 114.917C86.7363 114.056 86.292 113.014 86.292 111.792V89.5H86C85.3887 89.5 84.8747 89.2917 84.458 88.875C84.0413 88.4583 83.833 87.9443 83.833 87.333C83.833 86.6943 84.0413 86.1597 84.458 85.729C84.8747 85.2983 85.3887 85.083 86 85.083H93.917C93.917 84.4723 94.1253 83.9517 94.542 83.521C94.9587 83.0903 95.4863 82.875 96.125 82.875H103.875C104.514 82.875 105.048 83.0903 105.479 83.521C105.91 83.9517 106.125 84.4723 106.125 85.083H114C114.639 85.083 115.166 85.3053 115.583 85.75C116 86.1947 116.208 86.7087 116.208 87.292C116.208 87.9307 116 88.4583 115.583 88.875C115.166 89.2917 114.639 89.5 114 89.5H113.667V111.792C113.667 113.014 113.236 114.056 112.375 114.917C111.514 115.778 110.472 116.208 109.25 116.208H90.75ZM90.75 89.5V111.792H109.25V89.5H90.75ZM94.542 106.917C94.542 107.389 94.7223 107.799 95.083 108.146C95.4443 108.493 95.861 108.667 96.333 108.667C96.8057 108.667 97.2293 108.493 97.604 108.146C97.9793 107.799 98.167 107.389 98.167 106.917V94.417C98.167 93.9443 97.9793 93.5207 97.604 93.146C97.2293 92.7707 96.8057 92.583 96.333 92.583C95.861 92.583 95.4443 92.7707 95.083 93.146C94.7223 93.5207 94.542 93.9443 94.542 94.417V106.917ZM101.875 106.917C101.875 107.389 102.063 107.799 102.438 108.146C102.813 108.493 103.236 108.667 103.708 108.667C104.181 108.667 104.597 108.493 104.958 108.146C105.319 107.799 105.5 107.389 105.5 106.917V94.417C105.5 93.9443 105.319 93.5207 104.958 93.146C104.597 92.7707 104.167 92.583 103.667 92.583C103.194 92.583 102.778 92.7707 102.417 93.146C102.056 93.5207 101.875 93.9443 101.875 94.417V106.917Z" fill="white"/>
<rect x="160" y="80" width="40" height="40" rx="10" fill="black" fill-opacity="0.2"/>
<path d="M168.083 112.292H169.542L186.25 95.5001L184.792 94.0001L168.083 110.792V112.292ZM193 93.5421L186.75 87.3331L187.75 86.3331C188.611 85.4444 189.653 84.9931 190.875 84.9791C192.097 84.9651 193.139 85.3748 194 86.2081L194.833 87.0831C195.556 87.7778 195.882 88.5764 195.812 89.4791C195.743 90.3818 195.389 91.1388 194.75 91.7501L193 93.5421ZM191.042 95.4581L170.875 115.625H164.667V109.417L184.833 89.2921L191.042 95.4581ZM185.583 94.7921L184.792 94.0001L186.25 95.5001L185.583 94.7921Z" fill="white"/>
<rect x="240" y="80" width="40" height="40" rx="10" fill="black" fill-opacity="0.2"/>
<path d="M272.434 87.2388L247.427 112.673" stroke="white" stroke-width="5" stroke-miterlimit="1.5" stroke-linecap="round" stroke-linejoin="round"/>
<path d="M247.427 87.2388L272.434 112.673" stroke="white" stroke-width="5" stroke-miterlimit="1.5" stroke-linecap="round" stroke-linejoin="round"/>
<rect x="320" y="80" width="40" height="40" rx="10" fill="black" fill-opacity="0.2"/>
<path d="M348 102.5C347.583 102.083 347.368 101.576 347.354 100.979C347.34 100.382 347.555 99.861 348 99.417L350.417 97H341C340.389 97 339.875 96.7917 339.458 96.375C339.041 95.9583 338.833 95.4307 338.833 94.792C338.833 94.1527 339.041 93.6247 339.458 93.208C339.875 92.7913 340.389 92.583 341 92.583H350.417L348 90.167C347.555 89.7223 347.34 89.2013 347.354 88.604C347.368 88.0067 347.583 87.4997 348 87.083C348.445 86.611 348.972 86.375 349.583 86.375C350.194 86.375 350.694 86.5973 351.083 87.042L357.292 93.25C357.486 93.472 357.646 93.715 357.771 93.979C357.896 94.243 357.958 94.514 357.958 94.792C357.958 95.0693 357.896 95.347 357.771 95.625C357.646 95.903 357.486 96.139 357.292 96.333L351.083 102.542C350.666 102.986 350.159 103.208 349.562 103.208C348.965 103.208 348.445 102.972 348 102.5ZM328.917 112.917L322.708 106.708C322.514 106.541 322.361 106.319 322.25 106.042C322.139 105.764 322.083 105.486 322.083 105.208C322.083 104.931 322.139 104.653 322.25 104.375C322.361 104.097 322.514 103.847 322.708 103.625L328.958 97.417C329.375 97.0003 329.875 96.792 330.458 96.792C331.041 96.792 331.555 97.014 332 97.458C332.417 97.8747 332.632 98.3887 332.646 99C332.66 99.6113 332.445 100.125 332 100.542L329.583 102.958H339C339.611 102.958 340.139 103.173 340.583 103.604C341.028 104.035 341.25 104.556 341.25 105.167C341.25 105.834 341.028 106.368 340.583 106.771C340.139 107.174 339.611 107.375 339 107.375H329.583L332 109.875C332.445 110.292 332.66 110.799 332.646 111.396C332.632 111.993 332.417 112.5 332 112.917C331.555 113.361 331.035 113.583 330.438 113.583C329.841 113.583 329.334 113.361 328.917 112.917Z" fill="white"/>
<rect x="400" y="80" width="40" height="40" rx="10" fill="black" fill-opacity="0.2"/>
<path d="M423 110.333V100.958C423 100.319 423.201 99.7917 423.604 99.375C424.007 98.9583 424.528 98.75 425.167 98.75C425.778 98.75 426.305 98.9583 426.75 99.375C427.195 99.7917 427.417 100.319 427.417 100.958V110.375L429.875 107.917C430.292 107.5 430.806 107.299 431.417 107.312C432.028 107.326 432.541 107.541 432.958 107.958C433.375 108.403 433.583 108.917 433.583 109.5C433.583 110.083 433.361 110.611 432.917 111.083L426.75 117.25C426.555 117.445 426.319 117.597 426.042 117.708C425.764 117.819 425.486 117.875 425.208 117.875C424.931 117.875 424.646 117.819 424.354 117.708C424.063 117.597 423.834 117.445 423.667 117.25L417.417 111C417.028 110.583 416.833 110.076 416.833 109.479C416.833 108.882 417.041 108.361 417.458 107.917C417.875 107.528 418.389 107.333 419 107.333C419.611 107.333 420.139 107.555 420.583 108L423 110.333ZM412.583 89.583L410.167 92C409.722 92.4167 409.201 92.625 408.604 92.625C408.007 92.625 407.5 92.4027 407.083 91.958C406.639 91.5693 406.417 91.0627 406.417 90.438C406.417 89.8127 406.639 89.2917 407.083 88.875L413.292 82.625C413.459 82.4583 413.681 82.3127 413.958 82.188C414.236 82.0627 414.514 82 414.792 82C415.069 82 415.347 82.0627 415.625 82.188C415.903 82.3127 416.153 82.4583 416.375 82.625L422.583 88.875C423 89.3197 423.208 89.8473 423.208 90.458C423.208 91.0693 422.986 91.5693 422.542 91.958C422.125 92.4027 421.611 92.625 421 92.625C420.389 92.625 419.861 92.4167 419.417 92L417 89.542V99C417 99.6113 416.785 100.132 416.354 100.562C415.923 100.993 415.389 101.208 414.75 101.208C414.139 101.208 413.625 100.993 413.208 100.562C412.791 100.132 412.583 99.6113 412.583 99V89.583Z" fill="white"/>
<rect x="240" y="400" width="40" height="40" rx="10" fill="black" fill-opacity="0.2"/>
<path d="M246.417 435.792C245.75 435.792 245.215 435.591 244.812 435.188C244.409 434.785 244.208 434.25 244.208 433.583V423.625C244.208 423.014 244.423 422.486 244.854 422.042C245.285 421.597 245.792 421.375 246.375 421.375C246.986 421.375 247.514 421.597 247.958 422.042C248.403 422.486 248.625 423.014 248.625 423.625V428.25L268.292 408.583H263.625C263.014 408.583 262.493 408.368 262.062 407.938C261.632 407.507 261.417 406.986 261.417 406.375C261.417 405.792 261.632 405.278 262.062 404.833C262.493 404.389 263.014 404.167 263.625 404.167H273.625C274.264 404.167 274.791 404.375 275.208 404.792C275.625 405.209 275.833 405.736 275.833 406.375V416.375C275.833 416.986 275.611 417.507 275.167 417.938C274.722 418.368 274.208 418.583 273.625 418.583C273.014 418.583 272.493 418.368 272.062 417.938C271.632 417.507 271.417 416.986 271.417 416.375V411.708L251.75 431.375H256.375C256.986 431.375 257.514 431.597 257.958 432.042C258.403 432.486 258.625 433.014 258.625 433.625C258.625 434.208 258.403 434.715 257.958 435.146C257.514 435.577 256.986 435.792 256.375 435.792H246.417Z" fill="white"/>
<rect y="160" width="40" height="40" rx="10" fill="black" fill-opacity="0.2"/>
<path d="M8.20799 196.208C6.98599 196.208 5.94433 195.778 5.08299 194.917C4.22233 194.056 3.79199 193.014 3.79199 191.792V168.208C3.79199 166.986 4.22233 165.937 5.08299 165.062C5.94433 164.187 6.98599 163.75 8.20799 163.75H31.792C33.014 163.75 34.0627 164.187 34.938 165.062C35.8127 165.937 36.25 166.986 36.25 168.208V191.792C36.25 193.014 35.8127 194.056 34.938 194.917C34.0627 195.778 33.014 196.208 31.792 196.208H8.20799ZM8.20799 191.792H31.792V168.208H8.20799V191.792ZM11.625 178.333H18.333V171.625H11.625V178.333ZM21.667 178.333H28.375V171.625H21.667V178.333ZM11.625 188.375H18.333V181.667H11.625V188.375ZM21.667 188.375H28.375V181.667H21.667V188.375Z" fill="white"/>
<rect x="80" y="160" width="40" height="40" rx="10" fill="black" fill-opacity="0.2"/>
<path d="M89.125 192.292C88.4863 192.292 87.9517 192.077 87.521 191.646C87.0903 191.215 86.875 190.681 86.875 190.042V169.917C86.875 169.306 87.0903 168.785 87.521 168.354C87.9517 167.923 88.4863 167.708 89.125 167.708C89.7637 167.708 90.2847 167.923 90.688 168.354C91.0907 168.785 91.292 169.306 91.292 169.917V190.042C91.292 190.681 91.0907 191.215 90.688 191.646C90.2847 192.077 89.7637 192.292 89.125 192.292ZM109.625 189.917L97.833 181.833C97.1663 181.416 96.833 180.805 96.833 180C96.833 179.195 97.1663 178.584 97.833 178.167L109.625 170.042C110.347 169.569 111.111 169.541 111.917 169.958C112.722 170.375 113.125 171.028 113.125 171.917V188.083C113.125 188.972 112.736 189.625 111.958 190.042C111.181 190.459 110.403 190.417 109.625 189.917ZM108.708 183.917V176.083L102.958 180L108.708 183.917Z" fill="white"/>
<rect x="160" y="160" width="40" height="40" rx="10" fill="black" fill-opacity="0.2"/>
<path d="M190.917 192.292C190.25 192.292 189.715 192.077 189.312 191.646C188.909 191.215 188.708 190.681 188.708 190.042V169.917C188.708 169.306 188.916 168.785 189.333 168.354C189.75 167.923 190.278 167.708 190.917 167.708C191.528 167.708 192.048 167.923 192.479 168.354C192.91 168.785 193.125 169.306 193.125 169.917V190.042C193.125 190.681 192.91 191.215 192.479 191.646C192.048 192.077 191.528 192.292 190.917 192.292ZM170.375 189.917C169.597 190.417 168.819 190.459 168.042 190.042C167.264 189.625 166.875 188.972 166.875 188.083V171.917C166.875 171.028 167.278 170.375 168.083 169.958C168.889 169.541 169.653 169.569 170.375 170.042L182.208 178.167C182.847 178.584 183.167 179.195 183.167 180C183.167 180.805 182.847 181.416 182.208 181.833L170.375 189.917ZM171.292 183.917L177.042 180L171.292 176.083V183.917Z" fill="white"/>
<rect x="240" y="160" width="40" height="40" rx="10" fill="black" fill-opacity="0.2"/>
<path d="M246.208 192.5C245.569 192.5 245.042 192.285 244.625 191.854C244.208 191.423 244 190.903 244 190.292V184.625C244 182.125 244.861 180.021 246.583 178.312C248.306 176.604 250.403 175.75 252.875 175.75H267.583L263.667 171.75C263.222 171.333 263.007 170.833 263.021 170.25C263.035 169.667 263.264 169.153 263.708 168.708C264.097 168.291 264.597 168.083 265.208 168.083C265.819 168.083 266.333 168.291 266.75 168.708L274.458 176.417C274.653 176.611 274.813 176.847 274.938 177.125C275.063 177.403 275.125 177.681 275.125 177.958C275.125 178.236 275.063 178.514 274.938 178.792C274.813 179.069 274.653 179.291 274.458 179.458L266.708 187.208C266.291 187.653 265.785 187.868 265.188 187.854C264.591 187.84 264.084 187.611 263.667 187.167C263.25 186.722 263.042 186.201 263.042 185.604C263.042 185.007 263.264 184.486 263.708 184.042L267.583 180.167H252.875C251.625 180.167 250.576 180.597 249.729 181.458C248.882 182.319 248.458 183.375 248.458 184.625V190.292C248.458 190.903 248.236 191.423 247.792 191.854C247.347 192.285 246.819 192.5 246.208 192.5Z" fill="white"/>
<rect x="320" y="160" width="40" height="40" rx="10" fill="black" fill-opacity="0.2"/>
<path d="M326.458 180.208C325.708 180.208 325.111 179.944 324.667 179.417C324.222 178.889 324.097 178.278 324.292 177.583C324.486 176.944 324.701 176.326 324.938 175.729C325.174 175.132 325.459 174.528 325.792 173.917C326.125 173.306 326.625 172.972 327.292 172.917C327.959 172.861 328.57 173.083 329.125 173.583C329.486 173.916 329.715 174.354 329.812 174.896C329.909 175.437 329.833 175.944 329.583 176.417C329.389 176.694 329.222 177.028 329.083 177.417C328.944 177.806 328.847 178.153 328.792 178.458C328.569 178.986 328.25 179.41 327.833 179.729C327.416 180.048 326.958 180.208 326.458 180.208ZM335.667 197.792C335 197.625 334.368 197.424 333.771 197.188C333.174 196.951 332.611 196.666 332.083 196.333C331.416 196 331.048 195.486 330.979 194.792C330.91 194.097 331.167 193.458 331.75 192.875C332.083 192.57 332.507 192.382 333.021 192.312C333.535 192.243 334.028 192.319 334.5 192.542C334.75 192.764 335.056 192.931 335.417 193.042C335.778 193.153 336.139 193.278 336.5 193.417C336.972 193.556 337.375 193.833 337.708 194.25C338.041 194.667 338.208 195.125 338.208 195.625C338.208 196.403 337.944 197 337.417 197.417C336.889 197.834 336.306 197.959 335.667 197.792ZM325.833 190.083C325.472 189.528 325.181 188.944 324.958 188.333C324.736 187.722 324.528 187.07 324.333 186.375C324.139 185.708 324.257 185.111 324.688 184.583C325.118 184.056 325.722 183.792 326.5 183.792C326.917 183.792 327.347 183.952 327.792 184.271C328.236 184.59 328.555 185 328.75 185.5C328.805 185.861 328.896 186.215 329.021 186.562C329.146 186.909 329.305 187.25 329.5 187.583C329.75 188.028 329.833 188.528 329.75 189.083C329.667 189.639 329.458 190.097 329.125 190.458C328.57 190.986 327.965 191.215 327.312 191.146C326.659 191.077 326.166 190.722 325.833 190.083ZM344.375 197.708C343.68 197.903 343.076 197.799 342.562 197.396C342.049 196.993 341.792 196.403 341.792 195.625C341.792 195.208 341.952 194.778 342.271 194.333C342.59 193.889 343.014 193.57 343.542 193.375C345.959 192.542 347.938 191.111 349.479 189.083C351.021 187.056 351.792 184.695 351.792 182C351.792 178.889 350.778 176.222 348.75 174C346.722 171.778 344.125 170.528 340.958 170.25H340.542L341.625 171.292C341.792 171.681 341.861 172.132 341.833 172.646C341.806 173.16 341.584 173.611 341.167 174C340.722 174.445 340.194 174.66 339.583 174.646C338.972 174.632 338.445 174.417 338 174L333.542 169.5C333.319 169.305 333.153 169.076 333.042 168.813C332.931 168.549 332.875 168.278 332.875 168C332.875 167.695 332.931 167.41 333.042 167.146C333.153 166.882 333.319 166.639 333.542 166.417L338 161.917C338.445 161.472 338.965 161.25 339.562 161.25C340.159 161.25 340.68 161.472 341.125 161.917C341.542 162.334 341.778 162.813 341.833 163.354C341.889 163.896 341.778 164.347 341.5 164.708L340.375 165.792H340.875C345.208 166.014 348.854 167.674 351.812 170.771C354.771 173.868 356.25 177.611 356.25 182C356.25 185.722 355.132 189.014 352.896 191.875C350.66 194.736 347.82 196.681 344.375 197.708Z" fill="white"/>
<rect x="400" y="160" width="40" height="40" rx="10" fill="black" fill-opacity="0.2"/>
<path d="M406.375 191.333C405.764 191.333 405.243 191.125 404.812 190.708C404.382 190.291 404.167 189.764 404.167 189.125C404.167 188.514 404.382 187.993 404.812 187.562C405.243 187.132 405.764 186.917 406.375 186.917H433.667C434.25 186.917 434.757 187.132 435.188 187.562C435.618 187.993 435.833 188.514 435.833 189.125C435.833 189.764 435.618 190.291 435.188 190.708C434.757 191.125 434.25 191.333 433.667 191.333H406.375ZM406.375 182.208C405.764 182.208 405.243 181.993 404.812 181.562C404.382 181.132 404.167 180.611 404.167 180C404.167 179.361 404.382 178.834 404.812 178.417C405.243 178 405.764 177.792 406.375 177.792H433.667C434.25 177.792 434.757 178 435.188 178.417C435.618 178.834 435.833 179.361 435.833 180C435.833 180.611 435.618 181.132 435.188 181.562C434.757 181.993 434.25 182.208 433.667 182.208H406.375ZM406.375 173.083C405.764 173.083 405.243 172.861 404.812 172.417C404.382 171.972 404.167 171.458 404.167 170.875C404.167 170.236 404.382 169.702 404.812 169.271C405.243 168.84 405.764 168.625 406.375 168.625H433.667C434.25 168.625 434.757 168.84 435.188 169.271C435.618 169.702 435.833 170.222 435.833 170.833C435.833 171.472 435.618 172.007 435.188 172.438C434.757 172.868 434.25 173.083 433.667 173.083H406.375Z" fill="white"/>
<rect x="320" y="400" width="40" height="40" rx="10" fill="black" fill-opacity="0.2"/>
<path d="M334.125 429.583C333.68 429.111 333.458 428.577 333.458 427.979C333.458 427.382 333.68 426.875 334.125 426.458L340.583 419.958L334.083 413.458C333.639 413.042 333.424 412.521 333.438 411.896C333.451 411.271 333.68 410.75 334.125 410.333C334.542 409.889 335.049 409.674 335.646 409.688C336.243 409.701 336.75 409.916 337.167 410.333L345.292 418.417C345.486 418.611 345.646 418.847 345.771 419.125C345.896 419.403 345.958 419.681 345.958 419.958C345.958 420.264 345.896 420.549 345.771 420.812C345.646 421.076 345.486 421.306 345.292 421.5L337.208 429.583C336.791 430 336.278 430.202 335.667 430.188C335.056 430.174 334.542 429.973 334.125 429.583Z" fill="white"/>
<rect y="240" width="40" height="40" rx="10" fill="black" fill-opacity="0.2"/>
<path d="M20 265.917C19.3887 265.917 18.868 265.695 18.438 265.25C18.0073 264.805 17.792 264.291 17.792 263.708V251.792L14.792 254.792C14.3753 255.181 13.8683 255.382 13.271 255.396C12.6737 255.41 12.1667 255.195 11.75 254.75C11.3053 254.333 11.083 253.819 11.083 253.208C11.083 252.597 11.3053 252.056 11.75 251.583L18.458 244.875C18.6527 244.708 18.889 244.563 19.167 244.438C19.4443 244.313 19.722 244.25 20 244.25C20.278 244.25 20.5557 244.313 20.833 244.438C21.111 244.563 21.3473 244.708 21.542 244.875L28.292 251.667C28.736 252.084 28.9513 252.597 28.938 253.208C28.924 253.819 28.7087 254.333 28.292 254.75C27.8753 255.167 27.3683 255.375 26.771 255.375C26.1737 255.375 25.6527 255.153 25.208 254.708L22.208 251.792V263.708C22.208 264.291 21.9997 264.805 21.583 265.25C21.1663 265.695 20.6387 265.917 20 265.917ZM8.70799 275.625C7.54133 275.625 6.51366 275.194 5.62499 274.333C4.73633 273.472 4.29199 272.417 4.29199 271.167V265.625C4.29199 265.042 4.51399 264.528 4.95799 264.083C5.40266 263.639 5.93066 263.417 6.54199 263.417C7.18066 263.417 7.70133 263.639 8.10399 264.083C8.50666 264.528 8.70799 265.042 8.70799 265.625V271.167H31.208V265.625C31.208 265.042 31.4163 264.528 31.833 264.083C32.2497 263.639 32.7777 263.417 33.417 263.417C34.0557 263.417 34.5833 263.639 35 264.083C35.4167 264.528 35.625 265.042 35.625 265.625V271.167C35.625 272.417 35.1807 273.472 34.292 274.333C33.4027 275.194 32.3747 275.625 31.208 275.625H8.70799Z" fill="white"/>
<rect x="80" y="240" width="40" height="40" rx="10" fill="black" fill-opacity="0.2"/>
<path d="M106.792 251.875V248.167H93.208V251.875H88.792V243.75H111.208V251.875H106.792ZM86.458 256.333C86.458 256.333 86.597 256.333 86.875 256.333C87.153 256.333 87.4587 256.333 87.792 256.333H112.25C112.611 256.333 112.917 256.333 113.167 256.333C113.417 256.333 113.542 256.333 113.542 256.333H111.208H88.792H86.458ZM109.708 261.5C110.264 261.5 110.729 261.319 111.104 260.958C111.479 260.597 111.667 260.139 111.667 259.583C111.667 259.028 111.486 258.556 111.125 258.167C110.764 257.778 110.291 257.583 109.708 257.583C109.125 257.583 108.653 257.771 108.292 258.146C107.931 258.521 107.75 259 107.75 259.583C107.75 260.139 107.931 260.597 108.292 260.958C108.653 261.319 109.125 261.5 109.708 261.5ZM106.792 272.667V267.917H93.208V272.667H106.792ZM111.208 276.833H88.792V268.958H82.042V257.75C82.042 256.139 82.5973 254.757 83.708 253.604C84.8193 252.451 86.1807 251.875 87.792 251.875H112.208C113.847 251.875 115.215 252.451 116.312 253.604C117.409 254.757 117.958 256.139 117.958 257.75V268.958H111.208V276.833ZM113.542 264.542V257.75C113.542 257.389 113.417 257.062 113.167 256.771C112.917 256.479 112.611 256.333 112.25 256.333H87.792C87.4587 256.333 87.153 256.472 86.875 256.75C86.597 257.028 86.458 257.347 86.458 257.708V264.542H88.792V263.458H111.208V264.542H113.542Z" fill="white"/>
<rect x="160" y="240" width="40" height="40" rx="10" fill="black" fill-opacity="0.2"/>
<path d="M179.875 274.583C175.82 274.583 172.375 273.166 169.542 270.333C166.709 267.5 165.292 264.055 165.292 260C165.292 255.972 166.709 252.535 169.542 249.688C172.375 246.841 175.834 245.417 179.917 245.417C182.278 245.417 184.43 245.896 186.375 246.854C188.32 247.813 189.986 249.181 191.375 250.958V247.083C191.375 246.611 191.528 246.215 191.833 245.896C192.139 245.577 192.542 245.417 193.042 245.417C193.514 245.417 193.917 245.577 194.25 245.896C194.583 246.215 194.75 246.611 194.75 247.083V255.958C194.75 256.597 194.535 257.125 194.104 257.542C193.673 257.959 193.139 258.167 192.5 258.167H183.625C183.153 258.167 182.757 258.014 182.438 257.708C182.118 257.403 181.958 257.014 181.958 256.542C181.958 256.014 182.118 255.597 182.438 255.292C182.757 254.986 183.153 254.833 183.625 254.833H188.792C187.764 253.306 186.507 252.091 185.021 251.188C183.535 250.285 181.82 249.833 179.875 249.833C177.042 249.833 174.639 250.819 172.667 252.792C170.694 254.764 169.708 257.167 169.708 260C169.708 262.833 170.694 265.236 172.667 267.208C174.639 269.181 177.042 270.167 179.875 270.167C181.708 270.167 183.437 269.681 185.062 268.708C186.687 267.736 187.944 266.417 188.833 264.75C189.028 264.417 189.333 264.132 189.75 263.896C190.167 263.66 190.569 263.542 190.958 263.542C191.847 263.542 192.507 263.847 192.938 264.458C193.368 265.069 193.375 265.736 192.958 266.458C191.736 268.903 189.951 270.868 187.604 272.354C185.257 273.84 182.68 274.583 179.875 274.583Z" fill="white"/>
<rect x="240" y="240" width="40" height="40" rx="10" fill="black" fill-opacity="0.2"/>
<path d="M273.667 260.208C273.194 260.208 272.729 260.035 272.271 259.688C271.812 259.341 271.514 258.917 271.375 258.417C271.264 258.056 271.139 257.716 271 257.396C270.861 257.077 270.695 256.751 270.5 256.417C270.278 255.945 270.202 255.438 270.271 254.896C270.34 254.354 270.569 253.903 270.958 253.542C271.514 253.07 272.132 252.854 272.812 252.896C273.493 252.938 274 253.264 274.333 253.875C274.639 254.487 274.917 255.091 275.167 255.688C275.417 256.285 275.639 256.931 275.833 257.625C276 258.292 275.868 258.889 275.438 259.417C275.007 259.945 274.417 260.208 273.667 260.208ZM261.875 275.667C261.875 275.223 262.042 274.778 262.375 274.333C262.708 273.889 263.139 273.556 263.667 273.333C264 273.306 264.32 273.237 264.625 273.125C264.93 273.014 265.236 272.82 265.542 272.542C266.042 272.32 266.563 272.243 267.104 272.312C267.646 272.382 268.084 272.598 268.417 272.958C268.944 273.514 269.18 274.132 269.125 274.812C269.07 275.493 268.736 275.986 268.125 276.292C267.542 276.626 266.944 276.924 266.333 277.188C265.722 277.452 265.084 277.667 264.417 277.833C263.75 278 263.16 277.868 262.646 277.438C262.132 277.008 261.875 276.417 261.875 275.667ZM271 270.417C270.639 270.111 270.423 269.667 270.354 269.083C270.285 268.5 270.375 267.945 270.625 267.417C270.82 267.139 270.965 266.848 271.062 266.542C271.159 266.236 271.264 265.903 271.375 265.542C271.514 265.07 271.798 264.66 272.229 264.312C272.66 263.966 273.139 263.792 273.667 263.792C274.389 263.792 274.972 264.042 275.417 264.542C275.861 265.042 275.972 265.626 275.75 266.292C275.555 266.986 275.34 267.653 275.104 268.292C274.868 268.931 274.597 269.514 274.292 270.042C273.986 270.681 273.493 271.042 272.812 271.125C272.132 271.209 271.528 270.973 271 270.417ZM255.708 277.708C252.208 276.764 249.361 274.848 247.167 271.958C244.972 269.07 243.875 265.75 243.875 262C243.875 257.612 245.347 253.869 248.292 250.771C251.236 247.674 254.875 246.014 259.208 245.792H259.708L258.625 244.708C258.403 244.291 258.292 243.826 258.292 243.313C258.292 242.799 258.514 242.334 258.958 241.917C259.375 241.472 259.889 241.257 260.5 241.271C261.111 241.285 261.639 241.5 262.083 241.917L266.583 246.417C266.778 246.639 266.937 246.882 267.062 247.146C267.187 247.41 267.25 247.695 267.25 248C267.25 248.278 267.187 248.549 267.062 248.813C266.937 249.076 266.778 249.305 266.583 249.5L262.083 254C261.639 254.445 261.104 254.667 260.479 254.667C259.854 254.667 259.347 254.445 258.958 254C258.514 253.612 258.271 253.16 258.229 252.646C258.188 252.132 258.278 251.681 258.5 251.292L259.583 250.25H259.125C255.958 250.528 253.361 251.778 251.333 254C249.306 256.222 248.292 258.889 248.292 262C248.292 264.695 249.049 267.063 250.562 269.104C252.076 271.146 254.069 272.542 256.542 273.292C257.014 273.486 257.424 273.799 257.771 274.229C258.118 274.66 258.292 275.139 258.292 275.667C258.292 276.445 258.028 277.035 257.5 277.438C256.972 277.841 256.375 277.931 255.708 277.708Z" fill="white"/>
<rect x="320" y="240" width="40" height="40" rx="10" fill="black" fill-opacity="0.2"/>
<path d="M328.208 276.208C326.986 276.208 325.944 275.778 325.083 274.917C324.222 274.056 323.792 273.014 323.792 271.792V248.208C323.792 246.986 324.222 245.937 325.083 245.062C325.944 244.187 326.986 243.75 328.208 243.75H347.083C347.694 243.75 348.278 243.868 348.833 244.104C349.389 244.34 349.861 244.666 350.25 245.083L354.917 249.75C355.334 250.139 355.66 250.611 355.896 251.167C356.132 251.722 356.25 252.306 356.25 252.917V271.792C356.25 273.014 355.813 274.056 354.938 274.917C354.063 275.778 353.014 276.208 351.792 276.208H328.208ZM351.792 253L347 248.208H328.208V271.792H351.792V253ZM340 269.458C341.25 269.458 342.326 269.014 343.229 268.125C344.132 267.236 344.583 266.167 344.583 264.917C344.583 263.639 344.139 262.556 343.25 261.667C342.361 260.778 341.278 260.333 340 260.333C338.75 260.333 337.674 260.771 336.771 261.646C335.868 262.521 335.417 263.597 335.417 264.875C335.417 266.153 335.861 267.236 336.75 268.125C337.639 269.014 338.722 269.458 340 269.458ZM332.375 256.417H343C343.639 256.417 344.166 256.209 344.583 255.792C345 255.375 345.208 254.861 345.208 254.25V252.375C345.208 251.764 345 251.25 344.583 250.833C344.166 250.416 343.639 250.208 343 250.208H332.375C331.764 250.208 331.25 250.416 330.833 250.833C330.416 251.25 330.208 251.764 330.208 252.375V254.25C330.208 254.861 330.416 255.375 330.833 255.792C331.25 256.209 331.764 256.417 332.375 256.417ZM328.208 253V271.792V248.208V253Z" fill="white"/>
<rect x="400" y="240" width="40" height="40" rx="10" fill="black" fill-opacity="0.2"/>
<path d="M406 255.667C405.333 255.667 404.799 255.459 404.396 255.042C403.993 254.625 403.792 254.097 403.792 253.458V245.958C403.792 245.347 404 244.827 404.417 244.396C404.834 243.965 405.347 243.75 405.958 243.75H413.458C414.097 243.75 414.625 243.965 415.042 244.396C415.459 244.827 415.667 245.347 415.667 245.958C415.667 246.597 415.459 247.132 415.042 247.563C414.625 247.993 414.097 248.208 413.458 248.208H411.333L414.75 251.625C415.195 252.07 415.41 252.591 415.396 253.188C415.382 253.785 415.167 254.291 414.75 254.708C414.333 255.153 413.813 255.375 413.188 255.375C412.563 255.375 412.042 255.153 411.625 254.708L408.208 251.333V253.458C408.208 254.097 407.993 254.625 407.562 255.042C407.132 255.459 406.611 255.667 406 255.667ZM425.292 254.708C424.847 254.291 424.625 253.778 424.625 253.167C424.625 252.556 424.847 252.028 425.292 251.583L428.667 248.208H426.542C425.903 248.208 425.375 247.993 424.958 247.563C424.541 247.132 424.333 246.597 424.333 245.958C424.333 245.319 424.541 244.792 424.958 244.375C425.375 243.958 425.903 243.75 426.542 243.75H434.042C434.653 243.75 435.173 243.965 435.604 244.396C436.035 244.827 436.25 245.347 436.25 245.958V253.458C436.25 254.097 436.035 254.625 435.604 255.042C435.173 255.459 434.653 255.667 434.042 255.667C433.403 255.667 432.868 255.459 432.438 255.042C432.007 254.625 431.792 254.097 431.792 253.458V251.333L428.375 254.75C427.93 255.195 427.409 255.403 426.812 255.375C426.215 255.347 425.709 255.125 425.292 254.708ZM426.542 276.208C425.903 276.208 425.375 276 424.958 275.583C424.541 275.166 424.333 274.639 424.333 274C424.333 273.389 424.541 272.868 424.958 272.438C425.375 272.007 425.903 271.792 426.542 271.792H428.667L425.25 268.375C424.805 267.93 424.597 267.403 424.625 266.792C424.653 266.181 424.889 265.667 425.333 265.25C425.722 264.833 426.222 264.625 426.833 264.625C427.444 264.625 427.972 264.833 428.417 265.25L431.792 268.667V266.542C431.792 265.903 432.007 265.375 432.438 264.958C432.868 264.541 433.403 264.333 434.042 264.333C434.681 264.333 435.208 264.541 435.625 264.958C436.042 265.375 436.25 265.903 436.25 266.542V274.042C436.25 274.653 436.035 275.166 435.604 275.583C435.173 276 434.653 276.208 434.042 276.208H426.542ZM405.958 276.208C405.347 276.208 404.834 276 404.417 275.583C404 275.166 403.792 274.653 403.792 274.042V266.542C403.792 265.903 404 265.375 404.417 264.958C404.834 264.541 405.361 264.333 406 264.333C406.611 264.333 407.132 264.541 407.562 264.958C407.993 265.375 408.208 265.903 408.208 266.542V268.667L411.667 265.208C412.084 264.791 412.604 264.59 413.229 264.604C413.854 264.618 414.375 264.819 414.792 265.208C415.209 265.625 415.417 266.146 415.417 266.771C415.417 267.396 415.209 267.916 414.792 268.333L411.333 271.792H413.458C414.097 271.792 414.625 272.007 415.042 272.438C415.459 272.868 415.667 273.389 415.667 274C415.667 274.667 415.459 275.201 415.042 275.604C414.625 276.007 414.097 276.208 413.458 276.208H405.958Z" fill="white"/>
<rect x="400" y="400" width="40" height="40" rx="10" fill="black" fill-opacity="0.2"/>
<path d="M420 426.417C422.028 426.417 423.743 425.709 425.146 424.292C426.549 422.875 427.25 421.167 427.25 419.167C427.25 417.139 426.542 415.424 425.125 414.021C423.708 412.618 422 411.917 420 411.917C417.972 411.917 416.257 412.625 414.854 414.042C413.451 415.459 412.75 417.167 412.75 419.167C412.75 421.194 413.458 422.909 414.875 424.312C416.292 425.715 418 426.417 420 426.417ZM420 423.042C418.917 423.042 418 422.66 417.25 421.896C416.5 421.132 416.125 420.222 416.125 419.167C416.125 418.084 416.507 417.167 417.271 416.417C418.035 415.667 418.945 415.292 420 415.292C421.083 415.292 422 415.674 422.75 416.438C423.5 417.201 423.875 418.111 423.875 419.167C423.875 420.25 423.493 421.167 422.729 421.917C421.965 422.667 421.055 423.042 420 423.042ZM420 432.833C415.972 432.833 412.298 431.729 408.979 429.521C405.66 427.312 403.097 424.403 401.292 420.792C401.153 420.597 401.055 420.354 401 420.062C400.945 419.771 400.917 419.472 400.917 419.167C400.917 418.889 400.945 418.597 401 418.292C401.055 417.986 401.153 417.708 401.292 417.458C403.097 413.903 405.66 411.021 408.979 408.812C412.298 406.604 415.972 405.5 420 405.5C424.028 405.5 427.702 406.604 431.021 408.812C434.34 411.021 436.903 413.903 438.708 417.458C438.847 417.708 438.945 417.979 439 418.271C439.055 418.562 439.083 418.861 439.083 419.167C439.083 419.444 439.055 419.736 439 420.042C438.945 420.347 438.847 420.597 438.708 420.792C436.903 424.403 434.34 427.312 431.021 429.521C427.702 431.729 424.028 432.833 420 432.833ZM420 428.917C423.305 428.917 426.312 428.035 429.021 426.271C431.729 424.507 433.819 422.139 435.292 419.167C433.819 416.194 431.729 413.826 429.021 412.063C426.312 410.299 423.305 409.417 420 409.417C416.695 409.417 413.681 410.299 410.958 412.063C408.236 413.826 406.153 416.194 404.708 419.167C406.153 422.139 408.236 424.507 410.958 426.271C413.681 428.035 416.695 428.917 420 428.917Z" fill="white"/>
<rect y="320" width="40" height="40" rx="10" fill="black" fill-opacity="0.2"/>
<path d="M30.167 357.875H9.83299C8.66633 357.875 7.63866 357.444 6.74999 356.583C5.86133 355.722 5.41699 354.681 5.41699 353.458V326.542C5.41699 325.319 5.86133 324.271 6.74999 323.396C7.63866 322.521 8.66633 322.083 9.83299 322.083H30.167C31.361 322.083 32.4027 322.521 33.292 323.396C34.1807 324.271 34.625 325.319 34.625 326.542V353.458C34.625 354.681 34.1807 355.722 33.292 356.583C32.4027 357.444 31.361 357.875 30.167 357.875ZM9.83299 353.458H30.167V326.542H9.83299V353.458Z" fill="white"/>
<rect x="80" y="320" width="40" height="40" rx="10" fill="black" fill-opacity="0.2"/>
<path d="M86.542 354.583C85.3193 354.583 84.2777 354.139 83.417 353.25C82.5557 352.361 82.125 351.334 82.125 350.167V329.833C82.125 328.639 82.5557 327.597 83.417 326.708C84.2777 325.819 85.3193 325.375 86.542 325.375H113.458C114.681 325.375 115.729 325.819 116.604 326.708C117.479 327.597 117.917 328.639 117.917 329.833V350.167C117.917 351.334 117.479 352.361 116.604 353.25C115.729 354.139 114.681 354.583 113.458 354.583H86.542ZM86.542 350.167H113.458V329.833H86.542V350.167Z" fill="white"/>
<rect x="160" y="320" width="40" height="40" rx="10" fill="black" fill-opacity="0.2"/>
<path d="M179.167 345.542L184.792 341.833C185.125 341.611 185.389 341.347 185.583 341.042C185.778 340.736 185.875 340.389 185.875 340C185.875 339.639 185.778 339.291 185.583 338.958C185.389 338.625 185.125 338.361 184.792 338.167L179.167 334.458C178.417 333.986 177.653 333.951 176.875 334.354C176.097 334.757 175.708 335.403 175.708 336.292V343.708C175.708 344.597 176.097 345.25 176.875 345.667C177.653 346.084 178.417 346.042 179.167 345.542ZM168.208 356.208C166.986 356.208 165.944 355.778 165.083 354.917C164.222 354.056 163.792 353.014 163.792 351.792V328.208C163.792 326.986 164.222 325.937 165.083 325.062C165.944 324.187 166.986 323.75 168.208 323.75H191.792C193.014 323.75 194.063 324.187 194.938 325.062C195.813 325.937 196.25 326.986 196.25 328.208V351.792C196.25 353.014 195.813 354.056 194.938 354.917C194.063 355.778 193.014 356.208 191.792 356.208H168.208ZM168.208 351.792H191.792V328.208H168.208V351.792Z" fill="white"/>
<rect x="240" y="320" width="40" height="40" rx="10" fill="black" fill-opacity="0.2"/>
<path d="M260 345.917C261.583 345.917 263.028 345.542 264.333 344.792C265.639 344.042 266.653 343 267.375 341.667C266.653 340.334 265.632 339.285 264.312 338.521C262.993 337.757 261.555 337.375 260 337.375C258.417 337.375 256.972 337.757 255.667 338.521C254.361 339.285 253.347 340.334 252.625 341.667C253.347 343 254.368 344.042 255.687 344.792C257.007 345.542 258.445 345.917 260 345.917ZM260 348.208C257.75 348.208 255.736 347.597 253.958 346.375C252.181 345.153 250.903 343.584 250.125 341.667C250.903 339.722 252.181 338.139 253.958 336.917C255.736 335.694 257.75 335.083 260 335.083C262.25 335.083 264.264 335.701 266.042 336.938C267.819 338.174 269.097 339.75 269.875 341.667C269.097 343.584 267.819 345.153 266.042 346.375C264.264 347.597 262.25 348.208 260 348.208ZM260 343.917C259.389 343.917 258.861 343.695 258.417 343.25C257.972 342.805 257.75 342.278 257.75 341.667C257.75 341.056 257.972 340.528 258.417 340.083C258.861 339.639 259.389 339.417 260 339.417C260.611 339.417 261.139 339.639 261.583 340.083C262.028 340.528 262.25 341.056 262.25 341.667C262.25 342.278 262.028 342.805 261.583 343.25C261.139 343.695 260.611 343.917 260 343.917ZM248.292 356.125C247.042 356.125 245.993 355.701 245.146 354.854C244.299 354.007 243.875 352.958 243.875 351.708V328.292C243.875 327.042 244.299 325.993 245.146 325.146C245.993 324.299 247.042 323.875 248.292 323.875H271.708C272.958 323.875 274.007 324.299 274.854 325.146C275.701 325.993 276.125 327.042 276.125 328.292V351.708C276.125 352.958 275.701 354.007 274.854 354.854C274.007 355.701 272.958 356.125 271.708 356.125H248.292ZM247.792 352.208H272.208V331.125H247.792V352.208Z" fill="white"/>
<rect x="320" y="320" width="40" height="40" rx="10" fill="black" fill-opacity="0.2"/>
<path d="M342.208 340C341.569 340 341.042 339.792 340.625 339.375C340.208 338.958 340 338.431 340 337.792V327.792C340 327.181 340.215 326.653 340.646 326.208C341.077 325.764 341.597 325.542 342.208 325.542C342.819 325.542 343.347 325.764 343.792 326.208C344.236 326.653 344.458 327.181 344.458 327.792V332.458L353.208 323.708C353.625 323.291 354.139 323.083 354.75 323.083C355.361 323.083 355.875 323.291 356.292 323.708C356.709 324.125 356.917 324.639 356.917 325.25C356.917 325.861 356.709 326.375 356.292 326.792L347.542 335.542H352.208C352.819 335.542 353.347 335.764 353.792 336.208C354.236 336.653 354.458 337.181 354.458 337.792C354.458 338.403 354.236 338.923 353.792 339.354C353.347 339.785 352.819 340 352.208 340H342.208ZM323.708 356.292C323.291 355.875 323.083 355.361 323.083 354.75C323.083 354.139 323.291 353.625 323.708 353.208L332.5 344.417H327.792C327.181 344.417 326.66 344.202 326.229 343.771C325.798 343.34 325.583 342.819 325.583 342.208C325.583 341.597 325.798 341.077 326.229 340.646C326.66 340.215 327.181 340 327.792 340H337.792C338.431 340 338.958 340.208 339.375 340.625C339.792 341.042 340 341.569 340 342.208V352.208C340 352.819 339.785 353.34 339.354 353.771C338.923 354.202 338.403 354.417 337.792 354.417C337.181 354.417 336.66 354.202 336.229 353.771C335.798 353.34 335.583 352.819 335.583 352.208V347.5L326.792 356.292C326.375 356.709 325.861 356.917 325.25 356.917C324.639 356.917 324.125 356.709 323.708 356.292Z" fill="white"/>
<rect x="400" y="320" width="40" height="40" rx="10" fill="black" fill-opacity="0.2"/>
<path d="M431.375 354.75L421.917 345.292C421.084 345.875 420.125 346.347 419.042 346.708C417.959 347.069 416.792 347.25 415.542 347.25C412.264 347.25 409.507 346.125 407.271 343.875C405.035 341.625 403.917 338.889 403.917 335.667C403.917 332.444 405.035 329.715 407.271 327.479C409.507 325.243 412.236 324.125 415.458 324.125C418.681 324.125 421.41 325.25 423.646 327.5C425.882 329.75 427 332.472 427 335.667C427 336.972 426.826 338.146 426.479 339.188C426.132 340.229 425.639 341.194 425 342.083L434.583 351.667C435 352.084 435.208 352.597 435.208 353.208C435.208 353.819 434.986 354.347 434.542 354.792C434.125 355.209 433.604 355.417 432.979 355.417C432.354 355.417 431.82 355.195 431.375 354.75ZM415.458 342.833C417.486 342.833 419.181 342.146 420.542 340.771C421.903 339.396 422.583 337.708 422.583 335.708C422.583 333.681 421.903 331.979 420.542 330.604C419.181 329.229 417.486 328.542 415.458 328.542C413.431 328.542 411.736 329.229 410.375 330.604C409.014 331.979 408.333 333.681 408.333 335.708C408.333 337.708 409.014 339.396 410.375 340.771C411.736 342.146 413.431 342.833 415.458 342.833ZM415.417 340.25C415.028 340.25 414.701 340.111 414.438 339.833C414.174 339.556 414.042 339.209 414.042 338.792V337.083H412.208C411.819 337.083 411.493 336.937 411.229 336.646C410.965 336.354 410.833 336.014 410.833 335.625C410.833 335.236 410.979 334.91 411.271 334.646C411.562 334.382 411.903 334.25 412.292 334.25H414.042V332.417C414.042 332.056 414.181 331.736 414.458 331.458C414.736 331.181 415.069 331.042 415.458 331.042C415.819 331.042 416.146 331.188 416.438 331.479C416.729 331.771 416.875 332.097 416.875 332.458V334.25H418.667C419.028 334.25 419.34 334.389 419.604 334.667C419.868 334.944 420 335.278 420 335.667C420 336.028 419.861 336.354 419.583 336.646C419.306 336.937 418.986 337.083 418.625 337.083H416.875V338.875C416.875 339.264 416.729 339.59 416.438 339.854C416.146 340.118 415.806 340.25 415.417 340.25Z" fill="white"/>
<rect y="480" width="40" height="40" rx="10" fill="black" fill-opacity="0.2"/>
<path d="M9.83299 517.833C8.63899 517.833 7.60433 517.396 6.72899 516.521C5.85433 515.646 5.41699 514.611 5.41699 513.417V496.625C5.41699 495.375 5.85433 494.319 6.72899 493.458C7.60433 492.597 8.63899 492.167 9.83299 492.167H11.375V489.417C11.375 486.972 12.2153 484.896 13.896 483.188C15.5767 481.479 17.6113 480.625 20 480.625C22.3887 480.625 24.4233 481.479 26.104 483.188C27.7847 484.896 28.625 486.972 28.625 489.417V492.167H30.167C31.361 492.167 32.4027 492.597 33.292 493.458C34.1807 494.319 34.625 495.375 34.625 496.625V513.417C34.625 514.611 34.1807 515.646 33.292 516.521C32.4027 517.396 31.361 517.833 30.167 517.833H9.83299ZM15.792 492.167H24.208V489.417C24.208 488.167 23.8053 487.132 23 486.313C22.1947 485.493 21.1947 485.083 20 485.083C18.8333 485.083 17.8403 485.493 17.021 486.313C16.2017 487.132 15.792 488.167 15.792 489.417V492.167ZM9.83299 513.417H30.167V496.625H9.83299V513.417ZM20 508.333C20.9167 508.333 21.6873 508.014 22.312 507.375C22.9373 506.736 23.25 505.972 23.25 505.083C23.25 504.222 22.9373 503.452 22.312 502.771C21.6873 502.09 20.9167 501.75 20 501.75C19.0833 501.75 18.3127 502.09 17.688 502.771C17.0627 503.452 16.75 504.222 16.75 505.083C16.75 505.972 17.0627 506.736 17.688 507.375C18.3127 508.014 19.0833 508.333 20 508.333Z" fill="white"/>
<rect y="400" width="40" height="40" rx="10" fill="black" fill-opacity="0.2"/>
<path d="M31.375 434.75L21.917 425.292C21.0837 425.875 20.1253 426.347 19.042 426.708C17.9587 427.069 16.792 427.25 15.542 427.25C12.264 427.25 9.50699 426.125 7.27099 423.875C5.03499 421.625 3.91699 418.889 3.91699 415.667C3.91699 412.444 5.03499 409.715 7.27099 407.479C9.50699 405.243 12.236 404.125 15.458 404.125C18.6807 404.125 21.41 405.25 23.646 407.5C25.882 409.75 27 412.472 27 415.667C27 416.972 26.8263 418.146 26.479 419.188C26.1317 420.229 25.6387 421.194 25 422.083L34.583 431.667C34.9997 432.084 35.208 432.597 35.208 433.208C35.208 433.819 34.986 434.347 34.542 434.792C34.1253 435.209 33.6043 435.417 32.979 435.417C32.3543 435.417 31.8197 435.195 31.375 434.75ZM15.458 422.833C17.486 422.833 19.1807 422.146 20.542 420.771C21.9027 419.396 22.583 417.708 22.583 415.708C22.583 413.681 21.9027 411.979 20.542 410.604C19.1807 409.229 17.486 408.542 15.458 408.542C13.4307 408.542 11.7363 409.229 10.375 410.604C9.01366 411.979 8.33299 413.681 8.33299 415.708C8.33299 417.708 9.01366 419.396 10.375 420.771C11.7363 422.146 13.4307 422.833 15.458 422.833ZM12.625 417.083C12.2363 417.083 11.91 416.937 11.646 416.646C11.382 416.354 11.25 416.014 11.25 415.625C11.25 415.236 11.389 414.91 11.667 414.646C11.9443 414.382 12.2777 414.25 12.667 414.25H18.25C18.6387 414.25 18.965 414.389 19.229 414.667C19.493 414.944 19.625 415.278 19.625 415.667C19.625 416.028 19.486 416.354 19.208 416.646C18.9307 416.937 18.5973 417.083 18.208 417.083H12.625Z" fill="white"/>
<rect x="80" y="400" width="40" height="40" rx="10" fill="black" fill-opacity="0.2"/>
<path d="M88.208 436.208C86.986 436.208 85.9443 435.778 85.083 434.917C84.2223 434.056 83.792 433.014 83.792 431.792V408.208C83.792 406.986 84.2223 405.937 85.083 405.062C85.9443 404.187 86.986 403.75 88.208 403.75H111.792C113.014 403.75 114.063 404.187 114.938 405.062C115.813 405.937 116.25 406.986 116.25 408.208V431.792C116.25 433.014 115.813 434.056 114.938 434.917C114.063 435.778 113.014 436.208 111.792 436.208H88.208ZM88.208 431.792H111.792V408.208H88.208V431.792Z" fill="white"/>
</svg>
