<svg width="440" height="439" viewBox="0 0 440 439" fill="none" xmlns="http://www.w3.org/2000/svg">
<rect y="0.5" width="40" height="40" rx="7" fill="#19191A"/>
<path d="M6.208 33C5.56933 33 5.04167 32.7847 4.625 32.354C4.20833 31.9233 4 31.4027 4 30.792V25.125C4 22.625 4.861 20.5207 6.583 18.812C8.30567 17.104 10.403 16.25 12.875 16.25H27.583L23.667 12.25C23.2223 11.8333 23.007 11.3333 23.021 10.75C23.035 10.1667 23.264 9.65267 23.708 9.20801C24.0973 8.79134 24.5973 8.58301 25.208 8.58301C25.8193 8.58301 26.3333 8.79134 26.75 9.20801L34.458 16.917C34.6527 17.111 34.8127 17.347 34.938 17.625C35.0627 17.903 35.125 18.1807 35.125 18.458C35.125 18.736 35.0627 19.014 34.938 19.292C34.8127 19.5693 34.6527 19.7913 34.458 19.958L26.708 27.708C26.2913 28.1527 25.7847 28.368 25.188 28.354C24.5907 28.34 24.0837 28.111 23.667 27.667C23.2503 27.2223 23.042 26.7013 23.042 26.104C23.042 25.5067 23.264 24.986 23.708 24.542L27.583 20.667H12.875C11.625 20.667 10.5763 21.0973 9.729 21.958C8.88167 22.8193 8.458 23.875 8.458 25.125V30.792C8.458 31.4027 8.236 31.9233 7.792 32.354C7.34733 32.7847 6.81933 33 6.208 33Z" fill="white"/>
<rect x="80" y="0.5" width="40" height="40" rx="7" fill="#19191A"/>
<path d="M86.458 20.708C85.708 20.708 85.111 20.4443 84.667 19.917C84.2224 19.389 84.0974 18.7777 84.292 18.083C84.486 17.4443 84.7014 16.8263 84.938 16.229C85.174 15.6317 85.4587 15.0277 85.792 14.417C86.1254 13.8057 86.6254 13.4723 87.292 13.417C87.9587 13.361 88.5697 13.583 89.125 14.083C89.4864 14.4163 89.7154 14.854 89.812 15.396C89.9094 15.9373 89.833 16.4443 89.583 16.917C89.389 17.1943 89.2224 17.5277 89.083 17.917C88.9444 18.3057 88.8474 18.6527 88.792 18.958C88.5694 19.486 88.2497 19.9097 87.833 20.229C87.4164 20.5483 86.958 20.708 86.458 20.708ZM95.667 38.292C95.0003 38.1253 94.3683 37.924 93.771 37.688C93.1737 37.4513 92.611 37.1663 92.083 36.833C91.4163 36.4997 91.0483 35.986 90.979 35.292C90.9097 34.5973 91.1667 33.9583 91.75 33.375C92.0833 33.0697 92.507 32.882 93.021 32.812C93.535 32.7427 94.028 32.8193 94.5 33.042C94.75 33.264 95.0557 33.4307 95.417 33.542C95.7777 33.6527 96.1387 33.7777 96.5 33.917C96.972 34.0557 97.3747 34.3333 97.708 34.75C98.0413 35.1667 98.208 35.625 98.208 36.125C98.208 36.903 97.9443 37.5003 97.417 37.917C96.889 38.3337 96.3057 38.4587 95.667 38.292ZM85.833 30.583C85.4724 30.0277 85.1807 29.4443 84.958 28.833C84.736 28.2223 84.5277 27.5697 84.333 26.875C84.139 26.2083 84.2574 25.611 84.688 25.083C85.118 24.5557 85.722 24.292 86.5 24.292C86.9167 24.292 87.3474 24.4517 87.792 24.771C88.236 25.0903 88.5554 25.5 88.75 26C88.8054 26.3613 88.8957 26.7153 89.021 27.062C89.1457 27.4093 89.3054 27.7497 89.5 28.083C89.75 28.5277 89.8334 29.0277 89.75 29.583C89.6667 30.139 89.4584 30.5973 89.125 30.958C88.5697 31.486 87.9654 31.7153 87.312 31.646C86.6594 31.5767 86.1664 31.2223 85.833 30.583ZM104.375 38.208C103.68 38.4027 103.076 38.2987 102.562 37.896C102.049 37.4933 101.792 36.903 101.792 36.125C101.792 35.7083 101.952 35.2777 102.271 34.833C102.59 34.389 103.014 34.0697 103.542 33.875C105.959 33.0417 107.938 31.611 109.479 29.583C111.021 27.5557 111.792 25.1947 111.792 22.5C111.792 19.3887 110.778 16.722 108.75 14.5C106.722 12.278 104.125 11.028 100.958 10.75H100.542L101.625 11.792C101.792 12.1807 101.861 12.632 101.833 13.146C101.806 13.66 101.584 14.1113 101.167 14.5C100.722 14.9447 100.194 15.16 99.583 15.146C98.9723 15.132 98.4447 14.9167 98 14.5L93.542 10C93.3193 9.80533 93.1527 9.57633 93.042 9.313C92.9307 9.049 92.875 8.778 92.875 8.5C92.875 8.19467 92.9307 7.91 93.042 7.646C93.1527 7.382 93.3193 7.139 93.542 6.917L98 2.417C98.4447 1.97233 98.9653 1.75 99.562 1.75C100.159 1.75 100.68 1.97233 101.125 2.417C101.542 2.83367 101.778 3.31267 101.833 3.854C101.889 4.396 101.778 4.84733 101.5 5.208L100.375 6.292H100.875C105.208 6.514 108.854 8.17367 111.812 11.271C114.771 14.3683 116.25 18.1113 116.25 22.5C116.25 26.222 115.132 29.5137 112.896 32.375C110.66 35.2363 107.82 37.1807 104.375 38.208Z" fill="white"/>
<rect x="160" y="0.5" width="40" height="40" rx="7" fill="#19191A"/>
<path d="M166.375 31.833C165.764 31.833 165.243 31.6247 164.812 31.208C164.382 30.7913 164.167 30.2637 164.167 29.625C164.167 29.0137 164.382 28.4927 164.812 28.062C165.243 27.632 165.764 27.417 166.375 27.417H193.667C194.25 27.417 194.757 27.632 195.188 28.062C195.618 28.4927 195.833 29.0137 195.833 29.625C195.833 30.2637 195.618 30.7913 195.188 31.208C194.757 31.6247 194.25 31.833 193.667 31.833H166.375ZM166.375 22.708C165.764 22.708 165.243 22.4927 164.812 22.062C164.382 21.632 164.167 21.1113 164.167 20.5C164.167 19.8613 164.382 19.3337 164.812 18.917C165.243 18.5003 165.764 18.292 166.375 18.292H193.667C194.25 18.292 194.757 18.5003 195.188 18.917C195.618 19.3337 195.833 19.8613 195.833 20.5C195.833 21.1113 195.618 21.632 195.188 22.062C194.757 22.4927 194.25 22.708 193.667 22.708H166.375ZM166.375 13.583C165.764 13.583 165.243 13.361 164.812 12.917C164.382 12.4723 164.167 11.9583 164.167 11.375C164.167 10.7363 164.382 10.2017 164.812 9.771C165.243 9.34033 165.764 9.125 166.375 9.125H193.667C194.25 9.125 194.757 9.34033 195.188 9.771C195.618 10.2017 195.833 10.7223 195.833 11.333C195.833 11.9723 195.618 12.5073 195.188 12.938C194.757 13.368 194.25 13.583 193.667 13.583H166.375Z" fill="white"/>
<rect x="240" y="0.5" width="40" height="40" rx="7" fill="#19191A"/>
<path d="M254.125 30.083C253.68 29.611 253.458 29.0764 253.458 28.479C253.458 27.8817 253.68 27.3747 254.125 26.958L260.583 20.458L254.083 13.958C253.639 13.5414 253.424 13.0207 253.438 12.396C253.451 11.7707 253.68 11.2497 254.125 10.833C254.542 10.389 255.049 10.174 255.646 10.188C256.243 10.2013 256.75 10.4164 257.167 10.833L265.292 18.917C265.486 19.111 265.646 19.347 265.771 19.625C265.896 19.903 265.958 20.1807 265.958 20.458C265.958 20.764 265.896 21.0487 265.771 21.312C265.646 21.576 265.486 21.8054 265.292 22L257.208 30.083C256.791 30.4997 256.278 30.7014 255.667 30.688C255.056 30.674 254.542 30.4724 254.125 30.083Z" fill="white"/>
<rect x="320" y="0.5" width="40" height="40" rx="7" fill="#19191A"/>
<path d="M340 26.417C339.389 26.417 338.868 26.1947 338.438 25.75C338.007 25.3053 337.792 24.7913 337.792 24.208V12.292L334.792 15.292C334.375 15.6807 333.868 15.882 333.271 15.896C332.674 15.91 332.167 15.6947 331.75 15.25C331.305 14.8333 331.083 14.3193 331.083 13.708C331.083 13.0973 331.305 12.5557 331.75 12.083L338.458 5.375C338.653 5.20833 338.889 5.06267 339.167 4.938C339.444 4.81267 339.722 4.75 340 4.75C340.278 4.75 340.556 4.81267 340.833 4.938C341.111 5.06267 341.347 5.20833 341.542 5.375L348.292 12.167C348.736 12.5837 348.951 13.0973 348.938 13.708C348.924 14.3193 348.709 14.8333 348.292 15.25C347.875 15.6667 347.368 15.875 346.771 15.875C346.174 15.875 345.653 15.6527 345.208 15.208L342.208 12.292V24.208C342.208 24.7913 342 25.3053 341.583 25.75C341.166 26.1947 340.639 26.417 340 26.417ZM328.708 36.125C327.541 36.125 326.514 35.6943 325.625 34.833C324.736 33.9723 324.292 32.917 324.292 31.667V26.125C324.292 25.5417 324.514 25.0277 324.958 24.583C325.403 24.139 325.931 23.917 326.542 23.917C327.181 23.917 327.701 24.139 328.104 24.583C328.507 25.0277 328.708 25.5417 328.708 26.125V31.667H351.208V26.125C351.208 25.5417 351.416 25.0277 351.833 24.583C352.25 24.139 352.778 23.917 353.417 23.917C354.056 23.917 354.583 24.139 355 24.583C355.417 25.0277 355.625 25.5417 355.625 26.125V31.667C355.625 32.917 355.181 33.9723 354.292 34.833C353.403 35.6943 352.375 36.125 351.208 36.125H328.708Z" fill="white"/>
<rect x="400" y="0.5" width="40" height="40" rx="7" fill="#19191A"/>
<path d="M426.792 12.375V8.667H413.208V12.375H408.792V4.25H431.208V12.375H426.792ZM406.458 16.833C406.458 16.833 406.597 16.833 406.875 16.833C407.153 16.833 407.459 16.833 407.792 16.833H432.25C432.611 16.833 432.917 16.833 433.167 16.833C433.417 16.833 433.542 16.833 433.542 16.833H431.208H408.792H406.458ZM429.708 22C430.264 22 430.729 21.8193 431.104 21.458C431.479 21.0973 431.667 20.639 431.667 20.083C431.667 19.5277 431.486 19.0557 431.125 18.667C430.764 18.2777 430.291 18.083 429.708 18.083C429.125 18.083 428.653 18.2707 428.292 18.646C427.931 19.0207 427.75 19.4997 427.75 20.083C427.75 20.639 427.931 21.0973 428.292 21.458C428.653 21.8193 429.125 22 429.708 22ZM426.792 33.167V28.417H413.208V33.167H426.792ZM431.208 37.333H408.792V29.458H402.042V18.25C402.042 16.6387 402.597 15.2567 403.708 14.104C404.819 12.9513 406.181 12.375 407.792 12.375H432.208C433.847 12.375 435.215 12.9513 436.312 14.104C437.409 15.2567 437.958 16.6387 437.958 18.25V29.458H431.208V37.333ZM433.542 25.042V18.25C433.542 17.8887 433.417 17.5623 433.167 17.271C432.917 16.979 432.611 16.833 432.25 16.833H407.792C407.459 16.833 407.153 16.972 406.875 17.25C406.597 17.528 406.458 17.8473 406.458 18.208V25.042H408.792V23.958H431.208V25.042H433.542Z" fill="white"/>
<rect y="80.5" width="40" height="40" rx="7" fill="#19191A"/>
<path d="M19.875 115.083C15.8197 115.083 12.3753 113.666 9.54199 110.833C6.70866 108 5.29199 104.555 5.29199 100.5C5.29199 96.472 6.70866 93.0347 9.54199 90.188C12.3753 87.3407 15.8337 85.917 19.917 85.917C22.2777 85.917 24.4303 86.396 26.375 87.354C28.3197 88.3127 29.9863 89.6807 31.375 91.458V87.583C31.375 87.111 31.5277 86.7153 31.833 86.396C32.139 86.0767 32.542 85.917 33.042 85.917C33.514 85.917 33.9167 86.0767 34.25 86.396C34.5833 86.7153 34.75 87.111 34.75 87.583V96.458C34.75 97.0973 34.5347 97.6253 34.104 98.042C33.6733 98.4587 33.1387 98.667 32.5 98.667H23.625C23.153 98.667 22.7573 98.514 22.438 98.208C22.118 97.9027 21.958 97.514 21.958 97.042C21.958 96.514 22.118 96.0973 22.438 95.792C22.7573 95.486 23.153 95.333 23.625 95.333H28.792C27.764 93.8057 26.507 92.5907 25.021 91.688C23.535 90.7847 21.8197 90.333 19.875 90.333C17.0417 90.333 14.639 91.3193 12.667 93.292C10.6943 95.264 9.70799 97.6667 9.70799 100.5C9.70799 103.333 10.6943 105.736 12.667 107.708C14.639 109.681 17.0417 110.667 19.875 110.667C21.7083 110.667 23.4373 110.181 25.062 109.208C26.6873 108.236 27.9443 106.917 28.833 105.25C29.0277 104.917 29.3333 104.632 29.75 104.396C30.1667 104.16 30.5693 104.042 30.958 104.042C31.8473 104.042 32.5073 104.347 32.938 104.958C33.368 105.569 33.3747 106.236 32.958 106.958C31.736 109.403 29.9513 111.368 27.604 112.854C25.2567 114.34 22.6803 115.083 19.875 115.083Z" fill="white"/>
<rect x="80" y="80.5" width="40" height="40" rx="7" fill="#19191A"/>
<path d="M113.667 100.708C113.194 100.708 112.729 100.535 112.271 100.188C111.812 99.8407 111.514 99.417 111.375 98.917C111.264 98.5557 111.139 98.2154 111 97.896C110.861 97.5767 110.695 97.2504 110.5 96.917C110.278 96.4444 110.202 95.9374 110.271 95.396C110.34 94.854 110.569 94.4027 110.958 94.042C111.514 93.5694 112.132 93.354 112.812 93.396C113.493 93.4374 114 93.7637 114.333 94.375C114.639 94.9864 114.917 95.5907 115.167 96.188C115.417 96.7847 115.639 97.4304 115.833 98.125C116 98.7917 115.868 99.389 115.438 99.917C115.007 100.444 114.417 100.708 113.667 100.708ZM101.875 116.167C101.875 115.722 102.042 115.278 102.375 114.833C102.708 114.389 103.139 114.056 103.667 113.833C104 113.806 104.32 113.736 104.625 113.625C104.93 113.514 105.236 113.319 105.542 113.042C106.042 112.819 106.563 112.743 107.104 112.812C107.646 112.882 108.084 113.097 108.417 113.458C108.944 114.014 109.18 114.632 109.125 115.312C109.07 115.993 108.736 116.486 108.125 116.792C107.542 117.125 106.944 117.424 106.333 117.688C105.722 117.951 105.084 118.166 104.417 118.333C103.75 118.5 103.16 118.368 102.646 117.938C102.132 117.507 101.875 116.917 101.875 116.167ZM111 110.917C110.639 110.611 110.423 110.166 110.354 109.583C110.285 109 110.375 108.444 110.625 107.917C110.82 107.639 110.965 107.347 111.062 107.042C111.159 106.736 111.264 106.403 111.375 106.042C111.514 105.569 111.798 105.159 112.229 104.812C112.66 104.465 113.139 104.292 113.667 104.292C114.389 104.292 114.972 104.542 115.417 105.042C115.861 105.542 115.972 106.125 115.75 106.792C115.555 107.486 115.34 108.153 115.104 108.792C114.868 109.431 114.597 110.014 114.292 110.542C113.986 111.181 113.493 111.542 112.812 111.625C112.132 111.708 111.528 111.472 111 110.917ZM95.708 118.208C92.208 117.264 89.361 115.347 87.167 112.458C84.9723 109.569 83.875 106.25 83.875 102.5C83.875 98.1114 85.3473 94.3684 88.292 91.271C91.236 88.1737 94.8747 86.514 99.208 86.292H99.708L98.625 85.208C98.403 84.7914 98.292 84.3264 98.292 83.813C98.292 83.299 98.514 82.8337 98.958 82.417C99.3747 81.9724 99.8887 81.757 100.5 81.771C101.111 81.785 101.639 82.0004 102.083 82.417L106.583 86.917C106.778 87.139 106.937 87.382 107.062 87.646C107.187 87.91 107.25 88.1947 107.25 88.5C107.25 88.778 107.187 89.049 107.062 89.313C106.937 89.5764 106.778 89.8054 106.583 90L102.083 94.5C101.639 94.9447 101.104 95.167 100.479 95.167C99.8543 95.167 99.3473 94.9447 98.958 94.5C98.514 94.1114 98.271 93.66 98.229 93.146C98.1877 92.632 98.278 92.1807 98.5 91.792L99.583 90.75H99.125C95.9583 91.028 93.361 92.278 91.333 94.5C89.3057 96.722 88.292 99.3887 88.292 102.5C88.292 105.195 89.0487 107.563 90.562 109.604C92.076 111.646 94.0693 113.042 96.542 113.792C97.014 113.986 97.4237 114.298 97.771 114.729C98.1183 115.16 98.292 115.639 98.292 116.167C98.292 116.944 98.028 117.535 97.5 117.938C96.972 118.341 96.3747 118.431 95.708 118.208Z" fill="white"/>
<rect x="160" y="80.5" width="40" height="40" rx="7" fill="#19191A"/>
<path d="M166 96.167C165.333 96.167 164.799 95.9587 164.396 95.542C163.993 95.1253 163.792 94.5973 163.792 93.958V86.458C163.792 85.8473 164 85.3267 164.417 84.896C164.834 84.4653 165.347 84.25 165.958 84.25H173.458C174.097 84.25 174.625 84.4653 175.042 84.896C175.459 85.3267 175.667 85.8473 175.667 86.458C175.667 87.0973 175.459 87.6323 175.042 88.063C174.625 88.493 174.097 88.708 173.458 88.708H171.333L174.75 92.125C175.195 92.5697 175.41 93.0907 175.396 93.688C175.382 94.2847 175.167 94.7913 174.75 95.208C174.333 95.6527 173.813 95.875 173.188 95.875C172.563 95.875 172.042 95.6527 171.625 95.208L168.208 91.833V93.958C168.208 94.5973 167.993 95.1253 167.562 95.542C167.132 95.9587 166.611 96.167 166 96.167ZM185.292 95.208C184.847 94.7913 184.625 94.2777 184.625 93.667C184.625 93.0557 184.847 92.5277 185.292 92.083L188.667 88.708H186.542C185.903 88.708 185.375 88.493 184.958 88.063C184.541 87.6323 184.333 87.0973 184.333 86.458C184.333 85.8193 184.541 85.2917 184.958 84.875C185.375 84.4583 185.903 84.25 186.542 84.25H194.042C194.653 84.25 195.173 84.4653 195.604 84.896C196.035 85.3267 196.25 85.8473 196.25 86.458V93.958C196.25 94.5973 196.035 95.1253 195.604 95.542C195.173 95.9587 194.653 96.167 194.042 96.167C193.403 96.167 192.868 95.9587 192.438 95.542C192.007 95.1253 191.792 94.5973 191.792 93.958V91.833L188.375 95.25C187.93 95.6947 187.409 95.903 186.812 95.875C186.215 95.847 185.709 95.6247 185.292 95.208ZM186.542 116.708C185.903 116.708 185.375 116.5 184.958 116.083C184.541 115.666 184.333 115.139 184.333 114.5C184.333 113.889 184.541 113.368 184.958 112.938C185.375 112.507 185.903 112.292 186.542 112.292H188.667L185.25 108.875C184.805 108.43 184.597 107.903 184.625 107.292C184.653 106.681 184.889 106.167 185.333 105.75C185.722 105.333 186.222 105.125 186.833 105.125C187.444 105.125 187.972 105.333 188.417 105.75L191.792 109.167V107.042C191.792 106.403 192.007 105.875 192.438 105.458C192.868 105.041 193.403 104.833 194.042 104.833C194.681 104.833 195.208 105.041 195.625 105.458C196.042 105.875 196.25 106.403 196.25 107.042V114.542C196.25 115.153 196.035 115.666 195.604 116.083C195.173 116.5 194.653 116.708 194.042 116.708H186.542ZM165.958 116.708C165.347 116.708 164.834 116.5 164.417 116.083C164 115.666 163.792 115.153 163.792 114.542V107.042C163.792 106.403 164 105.875 164.417 105.458C164.834 105.041 165.361 104.833 166 104.833C166.611 104.833 167.132 105.041 167.562 105.458C167.993 105.875 168.208 106.403 168.208 107.042V109.167L171.667 105.708C172.084 105.291 172.604 105.09 173.229 105.104C173.854 105.118 174.375 105.319 174.792 105.708C175.209 106.125 175.417 106.646 175.417 107.271C175.417 107.896 175.209 108.416 174.792 108.833L171.333 112.292H173.458C174.097 112.292 174.625 112.507 175.042 112.938C175.459 113.368 175.667 113.889 175.667 114.5C175.667 115.167 175.459 115.701 175.042 116.104C174.625 116.507 174.097 116.708 173.458 116.708H165.958Z" fill="white"/>
<rect x="240" y="80.5" width="40" height="40" rx="7" fill="#19191A"/>
<path d="M260 106.917C262.028 106.917 263.743 106.209 265.146 104.792C266.549 103.375 267.25 101.667 267.25 99.667C267.25 97.639 266.542 95.9237 265.125 94.521C263.708 93.1183 262 92.417 260 92.417C257.972 92.417 256.257 93.1253 254.854 94.542C253.451 95.9587 252.75 97.667 252.75 99.667C252.75 101.694 253.458 103.409 254.875 104.812C256.292 106.215 258 106.917 260 106.917ZM260 103.542C258.917 103.542 258 103.16 257.25 102.396C256.5 101.632 256.125 100.722 256.125 99.667C256.125 98.5837 256.507 97.667 257.271 96.917C258.035 96.167 258.945 95.792 260 95.792C261.083 95.792 262 96.174 262.75 96.938C263.5 97.7013 263.875 98.611 263.875 99.667C263.875 100.75 263.493 101.667 262.729 102.417C261.965 103.167 261.055 103.542 260 103.542ZM260 113.333C255.972 113.333 252.298 112.229 248.979 110.021C245.66 107.812 243.097 104.903 241.292 101.292C241.153 101.097 241.055 100.854 241 100.562C240.945 100.271 240.917 99.9723 240.917 99.667C240.917 99.389 240.945 99.0973 241 98.792C241.055 98.486 241.153 98.208 241.292 97.958C243.097 94.4027 245.66 91.5207 248.979 89.312C252.298 87.104 255.972 86 260 86C264.028 86 267.702 87.104 271.021 89.312C274.34 91.5207 276.903 94.4027 278.708 97.958C278.847 98.208 278.945 98.479 279 98.771C279.055 99.0623 279.083 99.361 279.083 99.667C279.083 99.9443 279.055 100.236 279 100.542C278.945 100.847 278.847 101.097 278.708 101.292C276.903 104.903 274.34 107.812 271.021 110.021C267.702 112.229 264.028 113.333 260 113.333ZM260 109.417C263.305 109.417 266.312 108.535 269.021 106.771C271.729 105.007 273.819 102.639 275.292 99.667C273.819 96.6943 271.729 94.3263 269.021 92.563C266.312 90.799 263.305 89.917 260 89.917C256.695 89.917 253.681 90.799 250.958 92.563C248.236 94.3263 246.153 96.6943 244.708 99.667C246.153 102.639 248.236 105.007 250.958 106.771C253.681 108.535 256.695 109.417 260 109.417Z" fill="white"/>
<rect x="320" y="80.5" width="40" height="40" rx="7" fill="#19191A"/>
<path d="M350.167 118.375H329.833C328.666 118.375 327.639 117.944 326.75 117.083C325.861 116.222 325.417 115.181 325.417 113.958V87.042C325.417 85.8193 325.861 84.7707 326.75 83.896C327.639 83.0207 328.666 82.583 329.833 82.583H350.167C351.361 82.583 352.403 83.0207 353.292 83.896C354.181 84.7707 354.625 85.8193 354.625 87.042V113.958C354.625 115.181 354.181 116.222 353.292 117.083C352.403 117.944 351.361 118.375 350.167 118.375ZM329.833 113.958H350.167V87.042H329.833V113.958Z" fill="white"/>
<rect x="400" y="80.5" width="40" height="40" rx="7" fill="#19191A"/>
<path d="M406.542 115.083C405.319 115.083 404.278 114.639 403.417 113.75C402.556 112.861 402.125 111.834 402.125 110.667V90.333C402.125 89.139 402.556 88.0973 403.417 87.208C404.278 86.3193 405.319 85.875 406.542 85.875H433.458C434.681 85.875 435.729 86.3193 436.604 87.208C437.479 88.0973 437.917 89.139 437.917 90.333V110.667C437.917 111.834 437.479 112.861 436.604 113.75C435.729 114.639 434.681 115.083 433.458 115.083H406.542ZM406.542 110.667H433.458V90.333H406.542V110.667Z" fill="white"/>
<rect y="160.5" width="40" height="40" rx="7" fill="#19191A"/>
<path d="M19.167 186.042L24.792 182.333C25.1253 182.111 25.389 181.847 25.583 181.542C25.7777 181.236 25.875 180.889 25.875 180.5C25.875 180.139 25.7777 179.791 25.583 179.458C25.389 179.125 25.1253 178.861 24.792 178.667L19.167 174.958C18.417 174.486 17.653 174.451 16.875 174.854C16.097 175.257 15.708 175.903 15.708 176.792V184.208C15.708 185.097 16.097 185.75 16.875 186.167C17.653 186.584 18.417 186.542 19.167 186.042ZM8.20799 196.708C6.98599 196.708 5.94433 196.278 5.08299 195.417C4.22233 194.556 3.79199 193.514 3.79199 192.292V168.708C3.79199 167.486 4.22233 166.437 5.08299 165.562C5.94433 164.687 6.98599 164.25 8.20799 164.25H31.792C33.014 164.25 34.0627 164.687 34.938 165.562C35.8127 166.437 36.25 167.486 36.25 168.708V192.292C36.25 193.514 35.8127 194.556 34.938 195.417C34.0627 196.278 33.014 196.708 31.792 196.708H8.20799ZM8.20799 192.292H31.792V168.708H8.20799V192.292Z" fill="white"/>
<rect x="80" y="160.5" width="40" height="40" rx="7" fill="#19191A"/>
<path d="M100 186.417C101.583 186.417 103.028 186.042 104.333 185.292C105.639 184.542 106.653 183.5 107.375 182.167C106.653 180.834 105.632 179.785 104.312 179.021C102.993 178.257 101.555 177.875 100 177.875C98.4167 177.875 96.9723 178.257 95.667 179.021C94.361 179.785 93.347 180.834 92.625 182.167C93.347 183.5 94.3677 184.542 95.687 185.292C97.007 186.042 98.4447 186.417 100 186.417ZM100 188.708C97.75 188.708 95.736 188.097 93.958 186.875C92.1807 185.653 90.903 184.084 90.125 182.167C90.903 180.222 92.1807 178.639 93.958 177.417C95.736 176.194 97.75 175.583 100 175.583C102.25 175.583 104.264 176.201 106.042 177.438C107.819 178.674 109.097 180.25 109.875 182.167C109.097 184.084 107.819 185.653 106.042 186.875C104.264 188.097 102.25 188.708 100 188.708ZM100 184.417C99.3887 184.417 98.861 184.195 98.417 183.75C97.9723 183.305 97.75 182.778 97.75 182.167C97.75 181.556 97.9723 181.028 98.417 180.583C98.861 180.139 99.3887 179.917 100 179.917C100.611 179.917 101.139 180.139 101.583 180.583C102.028 181.028 102.25 181.556 102.25 182.167C102.25 182.778 102.028 183.305 101.583 183.75C101.139 184.195 100.611 184.417 100 184.417ZM88.292 196.625C87.042 196.625 85.9933 196.201 85.146 195.354C84.2987 194.507 83.875 193.458 83.875 192.208V168.792C83.875 167.542 84.2987 166.493 85.146 165.646C85.9933 164.799 87.042 164.375 88.292 164.375H111.708C112.958 164.375 114.007 164.799 114.854 165.646C115.701 166.493 116.125 167.542 116.125 168.792V192.208C116.125 193.458 115.701 194.507 114.854 195.354C114.007 196.201 112.958 196.625 111.708 196.625H88.292ZM87.792 192.708H112.208V171.625H87.792V192.708Z" fill="white"/>
<rect x="160" y="160.5" width="40" height="40" rx="7" fill="#19191A"/>
<path d="M191.375 195.25L181.917 185.792C181.084 186.375 180.125 186.847 179.042 187.208C177.959 187.569 176.792 187.75 175.542 187.75C172.264 187.75 169.507 186.625 167.271 184.375C165.035 182.125 163.917 179.389 163.917 176.167C163.917 172.944 165.035 170.215 167.271 167.979C169.507 165.743 172.236 164.625 175.458 164.625C178.681 164.625 181.41 165.75 183.646 168C185.882 170.25 187 172.972 187 176.167C187 177.472 186.826 178.646 186.479 179.688C186.132 180.729 185.639 181.694 185 182.583L194.583 192.167C195 192.584 195.208 193.097 195.208 193.708C195.208 194.319 194.986 194.847 194.542 195.292C194.125 195.709 193.604 195.917 192.979 195.917C192.354 195.917 191.82 195.695 191.375 195.25ZM175.458 183.333C177.486 183.333 179.181 182.646 180.542 181.271C181.903 179.896 182.583 178.208 182.583 176.208C182.583 174.181 181.903 172.479 180.542 171.104C179.181 169.729 177.486 169.042 175.458 169.042C173.431 169.042 171.736 169.729 170.375 171.104C169.014 172.479 168.333 174.181 168.333 176.208C168.333 178.208 169.014 179.896 170.375 181.271C171.736 182.646 173.431 183.333 175.458 183.333ZM175.417 180.75C175.028 180.75 174.701 180.611 174.438 180.333C174.174 180.056 174.042 179.709 174.042 179.292V177.583H172.208C171.819 177.583 171.493 177.437 171.229 177.146C170.965 176.854 170.833 176.514 170.833 176.125C170.833 175.736 170.979 175.41 171.271 175.146C171.562 174.882 171.903 174.75 172.292 174.75H174.042V172.917C174.042 172.556 174.181 172.236 174.458 171.958C174.736 171.681 175.069 171.542 175.458 171.542C175.819 171.542 176.146 171.688 176.438 171.979C176.729 172.271 176.875 172.597 176.875 172.958V174.75H178.667C179.028 174.75 179.34 174.889 179.604 175.167C179.868 175.444 180 175.778 180 176.167C180 176.528 179.861 176.854 179.583 177.146C179.306 177.437 178.986 177.583 178.625 177.583H176.875V179.375C176.875 179.764 176.729 180.09 176.438 180.354C176.146 180.618 175.806 180.75 175.417 180.75Z" fill="white"/>
<rect x="240" y="160.5" width="40" height="40" rx="7" fill="#19191A"/>
<path d="M249.833 198.333C248.639 198.333 247.604 197.896 246.729 197.021C245.854 196.146 245.417 195.111 245.417 193.917V177.125C245.417 175.875 245.854 174.819 246.729 173.958C247.604 173.097 248.639 172.667 249.833 172.667H251.375V169.917C251.375 167.472 252.215 165.396 253.896 163.688C255.577 161.979 257.611 161.125 260 161.125C262.389 161.125 264.423 161.979 266.104 163.688C267.785 165.396 268.625 167.472 268.625 169.917V172.667H270.167C271.361 172.667 272.403 173.097 273.292 173.958C274.181 174.819 274.625 175.875 274.625 177.125V193.917C274.625 195.111 274.181 196.146 273.292 197.021C272.403 197.896 271.361 198.333 270.167 198.333H249.833ZM255.792 172.667H264.208V169.917C264.208 168.667 263.805 167.632 263 166.813C262.195 165.993 261.195 165.583 260 165.583C258.833 165.583 257.84 165.993 257.021 166.813C256.202 167.632 255.792 168.667 255.792 169.917V172.667ZM249.833 193.917H270.167V177.125H249.833V193.917ZM260 188.833C260.917 188.833 261.687 188.514 262.312 187.875C262.937 187.236 263.25 186.472 263.25 185.583C263.25 184.722 262.937 183.952 262.312 183.271C261.687 182.59 260.917 182.25 260 182.25C259.083 182.25 258.313 182.59 257.688 183.271C257.063 183.952 256.75 184.722 256.75 185.583C256.75 186.472 257.063 187.236 257.688 187.875C258.313 188.514 259.083 188.833 260 188.833Z" fill="white"/>
<rect x="320" y="160.5" width="40" height="40" rx="7" fill="#19191A"/>
<path d="M351.375 195.25L341.917 185.792C341.084 186.375 340.125 186.847 339.042 187.208C337.959 187.569 336.792 187.75 335.542 187.75C332.264 187.75 329.507 186.625 327.271 184.375C325.035 182.125 323.917 179.389 323.917 176.167C323.917 172.944 325.035 170.215 327.271 167.979C329.507 165.743 332.236 164.625 335.458 164.625C338.681 164.625 341.41 165.75 343.646 168C345.882 170.25 347 172.972 347 176.167C347 177.472 346.826 178.646 346.479 179.688C346.132 180.729 345.639 181.694 345 182.583L354.583 192.167C355 192.584 355.208 193.097 355.208 193.708C355.208 194.319 354.986 194.847 354.542 195.292C354.125 195.709 353.604 195.917 352.979 195.917C352.354 195.917 351.82 195.695 351.375 195.25ZM335.458 183.333C337.486 183.333 339.181 182.646 340.542 181.271C341.903 179.896 342.583 178.208 342.583 176.208C342.583 174.181 341.903 172.479 340.542 171.104C339.181 169.729 337.486 169.042 335.458 169.042C333.431 169.042 331.736 169.729 330.375 171.104C329.014 172.479 328.333 174.181 328.333 176.208C328.333 178.208 329.014 179.896 330.375 181.271C331.736 182.646 333.431 183.333 335.458 183.333ZM332.625 177.583C332.236 177.583 331.91 177.437 331.646 177.146C331.382 176.854 331.25 176.514 331.25 176.125C331.25 175.736 331.389 175.41 331.667 175.146C331.944 174.882 332.278 174.75 332.667 174.75H338.25C338.639 174.75 338.965 174.889 339.229 175.167C339.493 175.444 339.625 175.778 339.625 176.167C339.625 176.528 339.486 176.854 339.208 177.146C338.931 177.437 338.597 177.583 338.208 177.583H332.625Z" fill="white"/>
<rect x="400" y="160.5" width="40" height="40" rx="7" fill="#19191A"/>
<path d="M408.208 196.708C406.986 196.708 405.944 196.278 405.083 195.417C404.222 194.556 403.792 193.514 403.792 192.292V168.708C403.792 167.486 404.222 166.437 405.083 165.562C405.944 164.687 406.986 164.25 408.208 164.25H431.792C433.014 164.25 434.063 164.687 434.938 165.562C435.813 166.437 436.25 167.486 436.25 168.708V192.292C436.25 193.514 435.813 194.556 434.938 195.417C434.063 196.278 433.014 196.708 431.792 196.708H408.208ZM408.208 192.292H431.792V168.708H408.208V192.292Z" fill="white"/>
<rect y="243" width="35" height="35" rx="7" fill="#19191A"/>
<path fill-rule="evenodd" clip-rule="evenodd" d="M3.5 268.611L11.4057 256.92L17.0263 265.299L23.5116 251.853L33.7647 268.286L29.8764 273.367L6.09214 274.912L3.5 268.611Z" fill="white"/>
<path fill-rule="evenodd" clip-rule="evenodd" d="M32.0883 250.204C32.0883 247.931 30.1576 246.088 27.7761 246.088C22.332 246.088 13.0209 246.088 7.57682 246.088C5.19532 246.088 3.26477 247.931 3.26477 250.204C3.26477 255.683 3.26477 265.317 3.26477 270.796C3.26477 273.069 5.19532 274.912 7.57682 274.912C13.0209 274.912 22.332 274.912 27.7761 274.912C30.1576 274.912 32.0883 273.069 32.0883 270.796C32.0883 265.317 32.0883 255.683 32.0883 250.204Z" stroke="white" stroke-width="5" stroke-miterlimit="1.5" stroke-linecap="round" stroke-linejoin="round"/>
<rect x="77" y="240" width="40" height="40" rx="7" fill="#19191A"/>
<path d="M99.208 260C98.5693 260 98.0417 259.792 97.625 259.375C97.2083 258.958 97 258.431 97 257.792V247.792C97 247.181 97.2153 246.653 97.646 246.208C98.0767 245.764 98.5973 245.542 99.208 245.542C99.8193 245.542 100.347 245.764 100.792 246.208C101.236 246.653 101.458 247.181 101.458 247.792V252.458L110.208 243.708C110.625 243.291 111.139 243.083 111.75 243.083C112.361 243.083 112.875 243.291 113.292 243.708C113.709 244.125 113.917 244.639 113.917 245.25C113.917 245.861 113.709 246.375 113.292 246.792L104.542 255.542H109.208C109.819 255.542 110.347 255.764 110.792 256.208C111.236 256.653 111.458 257.181 111.458 257.792C111.458 258.403 111.236 258.923 110.792 259.354C110.347 259.785 109.819 260 109.208 260H99.208ZM80.708 276.292C80.2913 275.875 80.083 275.361 80.083 274.75C80.083 274.139 80.2913 273.625 80.708 273.208L89.5 264.417H84.792C84.1807 264.417 83.6597 264.202 83.229 263.771C82.7983 263.34 82.583 262.819 82.583 262.208C82.583 261.597 82.7983 261.077 83.229 260.646C83.6597 260.215 84.1807 260 84.792 260H94.792C95.4307 260 95.9583 260.208 96.375 260.625C96.7917 261.042 97 261.569 97 262.208V272.208C97 272.819 96.7847 273.34 96.354 273.771C95.9233 274.202 95.4027 274.417 94.792 274.417C94.1807 274.417 93.6597 274.202 93.229 273.771C92.7983 273.34 92.583 272.819 92.583 272.208V267.5L83.792 276.292C83.3753 276.709 82.8613 276.917 82.25 276.917C81.6387 276.917 81.1247 276.709 80.708 276.292Z" fill="white"/>
<rect x="157" y="240" width="40" height="40" rx="7" fill="#19191A"/>
<path d="M163 254.75C162.361 254.75 161.834 254.549 161.417 254.146C161 253.743 160.792 253.209 160.792 252.542V248.208C160.792 246.986 161.222 245.937 162.083 245.062C162.944 244.187 163.986 243.75 165.208 243.75H169.583C170.222 243.75 170.743 243.965 171.146 244.396C171.549 244.827 171.75 245.347 171.75 245.958C171.75 246.597 171.549 247.132 171.146 247.563C170.743 247.993 170.222 248.208 169.583 248.208H165.208V252.542C165.208 253.209 164.986 253.743 164.542 254.146C164.097 254.549 163.583 254.75 163 254.75ZM165.208 276.208C163.986 276.208 162.944 275.778 162.083 274.917C161.222 274.056 160.792 273.014 160.792 271.792V267.417C160.792 266.778 161 266.257 161.417 265.854C161.834 265.451 162.347 265.25 162.958 265.25C163.597 265.25 164.132 265.451 164.562 265.854C164.993 266.257 165.208 266.778 165.208 267.417V271.792H169.583C170.222 271.792 170.743 272.014 171.146 272.458C171.549 272.903 171.75 273.417 171.75 274C171.75 274.639 171.549 275.166 171.146 275.583C170.743 276 170.222 276.208 169.583 276.208H165.208ZM184.458 276.208C183.791 276.208 183.257 276 182.854 275.583C182.451 275.166 182.25 274.653 182.25 274.042C182.25 273.403 182.451 272.868 182.854 272.438C183.257 272.007 183.791 271.792 184.458 271.792H188.792V267.417C188.792 266.778 189.014 266.257 189.458 265.854C189.903 265.451 190.431 265.25 191.042 265.25C191.681 265.25 192.208 265.451 192.625 265.854C193.042 266.257 193.25 266.778 193.25 267.417V271.792C193.25 273.014 192.813 274.056 191.938 274.917C191.063 275.778 190.014 276.208 188.792 276.208H184.458ZM191.042 254.75C190.403 254.75 189.868 254.549 189.438 254.146C189.007 253.743 188.792 253.209 188.792 252.542V248.208H184.458C183.791 248.208 183.257 247.986 182.854 247.542C182.451 247.097 182.25 246.569 182.25 245.958C182.25 245.319 182.451 244.792 182.854 244.375C183.257 243.958 183.791 243.75 184.458 243.75H188.792C190.014 243.75 191.063 244.187 191.938 245.062C192.813 245.937 193.25 246.986 193.25 248.208V252.542C193.25 253.209 193.035 253.743 192.604 254.146C192.173 254.549 191.653 254.75 191.042 254.75Z" fill="white"/>
<rect x="237" y="240" width="40" height="40" rx="7" fill="#19191A"/>
<path d="M258.792 269.583L250.75 261.5C250.528 261.305 250.361 261.076 250.25 260.812C250.139 260.549 250.083 260.264 250.083 259.958C250.083 259.681 250.139 259.403 250.25 259.125C250.361 258.847 250.528 258.611 250.75 258.417L258.833 250.333C259.25 249.916 259.764 249.708 260.375 249.708C260.986 249.708 261.514 249.916 261.958 250.333C262.375 250.75 262.576 251.271 262.562 251.896C262.549 252.521 262.334 253.041 261.917 253.458L255.417 259.958L261.958 266.5C262.375 266.917 262.583 267.431 262.583 268.042C262.583 268.653 262.375 269.166 261.958 269.583C261.514 270 260.979 270.208 260.354 270.208C259.729 270.208 259.209 270 258.792 269.583Z" fill="white"/>
<rect x="317" y="240" width="40" height="40" rx="7" fill="#19191A"/>
<path fill-rule="evenodd" clip-rule="evenodd" d="M336.848 242.076H322.979C321.922 242.076 320.908 242.496 320.161 243.243C319.413 243.991 318.993 245.005 318.993 246.062V259.93H336.848V242.076Z" fill="white"/>
<path fill-rule="evenodd" clip-rule="evenodd" d="M336.848 259.888H318.993V273.757C318.993 274.814 319.413 275.828 320.161 276.575C320.908 277.323 321.922 277.743 322.979 277.743H336.848V259.888Z" fill="white" fill-opacity="0.7"/>
<path fill-rule="evenodd" clip-rule="evenodd" d="M354.702 259.888H336.848V277.743H350.716C351.773 277.743 352.787 277.323 353.535 276.575C354.282 275.828 354.702 274.814 354.702 273.757V259.888Z" fill="white"/>
<path fill-rule="evenodd" clip-rule="evenodd" d="M354.702 246.062C354.702 245.005 354.282 243.991 353.535 243.243C352.787 242.496 351.773 242.076 350.716 242.076H336.848V259.93H354.702V246.062Z" fill="white" fill-opacity="0.7"/>
<rect x="397" y="240" width="40" height="40" rx="7" fill="#19191A"/>
<path d="M403 276.25C402.361 276.25 401.827 276.035 401.396 275.604C400.965 275.173 400.75 274.639 400.75 274V268.042C400.75 267.792 400.806 267.535 400.917 267.271C401.028 267.007 401.194 266.75 401.417 266.5L415.708 252.208L414.708 251.167C414.208 250.694 413.972 250.111 414 249.417C414.028 248.722 414.292 248.125 414.792 247.625C415.264 247.153 415.861 246.924 416.583 246.938C417.306 246.951 417.931 247.194 418.458 247.667L420.25 249.458L425 244.583C425.611 244.028 426.264 243.757 426.958 243.771C427.653 243.785 428.292 244.084 428.875 244.667L432.333 248.167C432.916 248.722 433.222 249.361 433.25 250.083C433.278 250.806 433 251.445 432.417 252L427.542 256.792L429.375 258.667C429.847 259.167 430.083 259.757 430.083 260.438C430.083 261.118 429.847 261.708 429.375 262.208C428.875 262.708 428.278 262.958 427.583 262.958C426.889 262.958 426.306 262.708 425.833 262.208L424.792 261.25L410.5 275.583C410.25 275.806 409.993 275.972 409.729 276.083C409.465 276.194 409.208 276.25 408.958 276.25H403ZM405.167 271.833H408.083L422.167 257.75L419.25 254.833L405.167 268.917V271.833ZM424.417 254.417L428.833 250.083L427 248.25L422.583 252.583L424.417 254.417Z" fill="white"/>
<rect y="319" width="40" height="40" rx="7" fill="#19191A"/>
<path d="M8.20799 355.208C6.98599 355.208 5.94433 354.778 5.08299 353.917C4.22233 353.056 3.79199 352.014 3.79199 350.792V327.208C3.79199 325.986 4.22233 324.937 5.08299 324.062C5.94433 323.187 6.98599 322.75 8.20799 322.75H27.083C27.6943 322.75 28.2777 322.868 28.833 323.104C29.389 323.34 29.8613 323.666 30.25 324.083L34.917 328.75C35.3337 329.139 35.66 329.611 35.896 330.167C36.132 330.722 36.25 331.306 36.25 331.917V350.792C36.25 352.014 35.8127 353.056 34.938 353.917C34.0627 354.778 33.014 355.208 31.792 355.208H8.20799ZM31.792 332L27 327.208H8.20799V350.792H31.792V332ZM20 348.458C21.25 348.458 22.3263 348.014 23.229 347.125C24.1317 346.236 24.583 345.167 24.583 343.917C24.583 342.639 24.1387 341.556 23.25 340.667C22.3613 339.778 21.278 339.333 20 339.333C18.75 339.333 17.6737 339.771 16.771 340.646C15.8683 341.521 15.417 342.597 15.417 343.875C15.417 345.153 15.8613 346.236 16.75 347.125C17.6387 348.014 18.722 348.458 20 348.458ZM12.375 335.417H23C23.6387 335.417 24.1663 335.209 24.583 334.792C24.9997 334.375 25.208 333.861 25.208 333.25V331.375C25.208 330.764 24.9997 330.25 24.583 329.833C24.1663 329.416 23.6387 329.208 23 329.208H12.375C11.7637 329.208 11.2497 329.416 10.833 329.833C10.4163 330.25 10.208 330.764 10.208 331.375V333.25C10.208 333.861 10.4163 334.375 10.833 334.792C11.2497 335.209 11.7637 335.417 12.375 335.417ZM8.20799 332V350.792V327.208V332Z" fill="white"/>
<rect x="80" y="319" width="40" height="40" rx="7" fill="#19191A"/>
<path d="M107.958 344.167V331.042H94.833V326.625H107.958C109.153 326.625 110.187 327.063 111.062 327.938C111.937 328.813 112.375 329.847 112.375 331.042V344.167H107.958ZM110.167 357.667C109.528 357.667 109 357.452 108.583 357.021C108.166 356.59 107.958 356.069 107.958 355.458V351.333H92.042C90.8473 351.333 89.8127 350.903 88.938 350.042C88.0627 349.181 87.625 348.139 87.625 346.917V331.042H83.542C82.9027 331.042 82.3817 330.827 81.979 330.396C81.5763 329.965 81.375 329.458 81.375 328.875C81.375 328.236 81.5763 327.702 81.979 327.271C82.3817 326.84 82.9027 326.625 83.542 326.625H87.625V322.542C87.625 321.903 87.8473 321.382 88.292 320.979C88.736 320.576 89.2497 320.375 89.833 320.375C90.4723 320.375 91.0003 320.576 91.417 320.979C91.8337 321.382 92.042 321.903 92.042 322.542V346.917H116.458C117.097 346.917 117.625 347.139 118.042 347.583C118.459 348.028 118.667 348.542 118.667 349.125C118.667 349.764 118.459 350.291 118.042 350.708C117.625 351.125 117.097 351.333 116.458 351.333H112.375V355.458C112.375 356.069 112.153 356.59 111.708 357.021C111.264 357.452 110.75 357.667 110.167 357.667Z" fill="white"/>
<rect x="160" y="319" width="40" height="40" rx="7" fill="#19191A"/>
<path d="M170.75 355.208C169.555 355.208 168.514 354.778 167.625 353.917C166.736 353.056 166.292 352.014 166.292 350.792V328.5H166C165.389 328.5 164.875 328.292 164.458 327.875C164.041 327.458 163.833 326.944 163.833 326.333C163.833 325.694 164.041 325.16 164.458 324.729C164.875 324.298 165.389 324.083 166 324.083H173.917C173.917 323.472 174.125 322.952 174.542 322.521C174.959 322.09 175.486 321.875 176.125 321.875H183.875C184.514 321.875 185.048 322.09 185.479 322.521C185.91 322.952 186.125 323.472 186.125 324.083H194C194.639 324.083 195.166 324.305 195.583 324.75C196 325.195 196.208 325.709 196.208 326.292C196.208 326.931 196 327.458 195.583 327.875C195.166 328.292 194.639 328.5 194 328.5H193.667V350.792C193.667 352.014 193.236 353.056 192.375 353.917C191.514 354.778 190.472 355.208 189.25 355.208H170.75ZM170.75 328.5V350.792H189.25V328.5H170.75ZM174.542 345.917C174.542 346.389 174.722 346.799 175.083 347.146C175.444 347.493 175.861 347.667 176.333 347.667C176.806 347.667 177.229 347.493 177.604 347.146C177.979 346.799 178.167 346.389 178.167 345.917V333.417C178.167 332.944 177.979 332.521 177.604 332.146C177.229 331.771 176.806 331.583 176.333 331.583C175.861 331.583 175.444 331.771 175.083 332.146C174.722 332.521 174.542 332.944 174.542 333.417V345.917ZM181.875 345.917C181.875 346.389 182.063 346.799 182.438 347.146C182.813 347.493 183.236 347.667 183.708 347.667C184.181 347.667 184.597 347.493 184.958 347.146C185.319 346.799 185.5 346.389 185.5 345.917V333.417C185.5 332.944 185.319 332.521 184.958 332.146C184.597 331.771 184.167 331.583 183.667 331.583C183.194 331.583 182.778 331.771 182.417 332.146C182.056 332.521 181.875 332.944 181.875 333.417V345.917Z" fill="white"/>
<rect x="240" y="319" width="40" height="40" rx="7" fill="#19191A"/>
<path d="M248.083 351.292H249.542L266.25 334.5L264.792 333L248.083 349.792V351.292ZM273 332.542L266.75 326.333L267.75 325.333C268.611 324.444 269.653 323.993 270.875 323.979C272.097 323.965 273.139 324.375 274 325.208L274.833 326.083C275.556 326.778 275.882 327.576 275.812 328.479C275.743 329.382 275.389 330.139 274.75 330.75L273 332.542ZM271.042 334.458L250.875 354.625H244.667V348.417L264.833 328.292L271.042 334.458ZM265.583 333.792L264.792 333L266.25 334.5L265.583 333.792Z" fill="white"/>
<rect x="320" y="319" width="40" height="40" rx="7" fill="#19191A"/>
<path d="M348 341.5C347.583 341.083 347.368 340.576 347.354 339.979C347.34 339.382 347.555 338.861 348 338.417L350.417 336H341C340.389 336 339.875 335.792 339.458 335.375C339.041 334.958 338.833 334.431 338.833 333.792C338.833 333.153 339.041 332.625 339.458 332.208C339.875 331.791 340.389 331.583 341 331.583H350.417L348 329.167C347.555 328.722 347.34 328.201 347.354 327.604C347.368 327.007 347.583 326.5 348 326.083C348.445 325.611 348.972 325.375 349.583 325.375C350.194 325.375 350.694 325.597 351.083 326.042L357.292 332.25C357.486 332.472 357.646 332.715 357.771 332.979C357.896 333.243 357.958 333.514 357.958 333.792C357.958 334.069 357.896 334.347 357.771 334.625C357.646 334.903 357.486 335.139 357.292 335.333L351.083 341.542C350.666 341.986 350.159 342.208 349.562 342.208C348.965 342.208 348.445 341.972 348 341.5ZM328.917 351.917L322.708 345.708C322.514 345.541 322.361 345.319 322.25 345.042C322.139 344.764 322.083 344.486 322.083 344.208C322.083 343.931 322.139 343.653 322.25 343.375C322.361 343.097 322.514 342.847 322.708 342.625L328.958 336.417C329.375 336 329.875 335.792 330.458 335.792C331.041 335.792 331.555 336.014 332 336.458C332.417 336.875 332.632 337.389 332.646 338C332.66 338.611 332.445 339.125 332 339.542L329.583 341.958H339C339.611 341.958 340.139 342.173 340.583 342.604C341.028 343.035 341.25 343.556 341.25 344.167C341.25 344.834 341.028 345.368 340.583 345.771C340.139 346.174 339.611 346.375 339 346.375H329.583L332 348.875C332.445 349.292 332.66 349.799 332.646 350.396C332.632 350.993 332.417 351.5 332 351.917C331.555 352.361 331.035 352.583 330.438 352.583C329.841 352.583 329.334 352.361 328.917 351.917Z" fill="white"/>
<rect x="400" y="319" width="40" height="40" rx="7" fill="#19191A"/>
<path d="M423 349.333V339.958C423 339.319 423.201 338.792 423.604 338.375C424.007 337.958 424.528 337.75 425.167 337.75C425.778 337.75 426.305 337.958 426.75 338.375C427.195 338.792 427.417 339.319 427.417 339.958V349.375L429.875 346.917C430.292 346.5 430.806 346.299 431.417 346.312C432.028 346.326 432.541 346.541 432.958 346.958C433.375 347.403 433.583 347.917 433.583 348.5C433.583 349.083 433.361 349.611 432.917 350.083L426.75 356.25C426.555 356.445 426.319 356.597 426.042 356.708C425.764 356.819 425.486 356.875 425.208 356.875C424.931 356.875 424.646 356.819 424.354 356.708C424.063 356.597 423.834 356.445 423.667 356.25L417.417 350C417.028 349.583 416.833 349.076 416.833 348.479C416.833 347.882 417.041 347.361 417.458 346.917C417.875 346.528 418.389 346.333 419 346.333C419.611 346.333 420.139 346.555 420.583 347L423 349.333ZM412.583 328.583L410.167 331C409.722 331.417 409.201 331.625 408.604 331.625C408.007 331.625 407.5 331.403 407.083 330.958C406.639 330.569 406.417 330.063 406.417 329.438C406.417 328.813 406.639 328.292 407.083 327.875L413.292 321.625C413.459 321.458 413.681 321.313 413.958 321.188C414.236 321.063 414.514 321 414.792 321C415.069 321 415.347 321.063 415.625 321.188C415.903 321.313 416.153 321.458 416.375 321.625L422.583 327.875C423 328.32 423.208 328.847 423.208 329.458C423.208 330.069 422.986 330.569 422.542 330.958C422.125 331.403 421.611 331.625 421 331.625C420.389 331.625 419.861 331.417 419.417 331L417 328.542V338C417 338.611 416.785 339.132 416.354 339.562C415.923 339.993 415.389 340.208 414.75 340.208C414.139 340.208 413.625 339.993 413.208 339.562C412.791 339.132 412.583 338.611 412.583 338V328.583Z" fill="white"/>
<rect y="399" width="40" height="40" rx="7" fill="#19191A"/>
<path d="M6.41701 434.792C5.75034 434.792 5.21534 434.591 4.81201 434.188C4.40934 433.785 4.20801 433.25 4.20801 432.583V422.625C4.20801 422.014 4.42334 421.486 4.85401 421.042C5.28467 420.597 5.79167 420.375 6.37501 420.375C6.98634 420.375 7.51401 420.597 7.95801 421.042C8.40267 421.486 8.62501 422.014 8.62501 422.625V427.25L28.292 407.583H23.625C23.0137 407.583 22.4927 407.368 22.062 406.938C21.632 406.507 21.417 405.986 21.417 405.375C21.417 404.792 21.632 404.278 22.062 403.833C22.4927 403.389 23.0137 403.167 23.625 403.167H33.625C34.2637 403.167 34.7913 403.375 35.208 403.792C35.6247 404.209 35.833 404.736 35.833 405.375V415.375C35.833 415.986 35.611 416.507 35.167 416.938C34.7223 417.368 34.2083 417.583 33.625 417.583C33.0137 417.583 32.4927 417.368 32.062 416.938C31.632 416.507 31.417 415.986 31.417 415.375V410.708L11.75 430.375H16.375C16.9863 430.375 17.514 430.597 17.958 431.042C18.4027 431.486 18.625 432.014 18.625 432.625C18.625 433.208 18.4027 433.715 17.958 434.146C17.514 434.577 16.9863 434.792 16.375 434.792H6.41701Z" fill="white"/>
<rect x="80" y="399" width="40" height="40" rx="7" fill="#19191A"/>
<path d="M88.208 435.208C86.986 435.208 85.9443 434.778 85.083 433.917C84.2223 433.056 83.792 432.014 83.792 430.792V407.208C83.792 405.986 84.2223 404.937 85.083 404.062C85.9443 403.187 86.986 402.75 88.208 402.75H111.792C113.014 402.75 114.063 403.187 114.938 404.062C115.813 404.937 116.25 405.986 116.25 407.208V430.792C116.25 432.014 115.813 433.056 114.938 433.917C114.063 434.778 113.014 435.208 111.792 435.208H88.208ZM88.208 430.792H111.792V407.208H88.208V430.792ZM91.625 417.333H98.333V410.625H91.625V417.333ZM101.667 417.333H108.375V410.625H101.667V417.333ZM91.625 427.375H98.333V420.667H91.625V427.375ZM101.667 427.375H108.375V420.667H101.667V427.375Z" fill="white"/>
<rect x="160" y="399" width="40" height="40" rx="7" fill="#19191A"/>
<path d="M169.125 431.292C168.486 431.292 167.952 431.077 167.521 430.646C167.09 430.215 166.875 429.681 166.875 429.042V408.917C166.875 408.306 167.09 407.785 167.521 407.354C167.952 406.923 168.486 406.708 169.125 406.708C169.764 406.708 170.285 406.923 170.688 407.354C171.091 407.785 171.292 408.306 171.292 408.917V429.042C171.292 429.681 171.091 430.215 170.688 430.646C170.285 431.077 169.764 431.292 169.125 431.292ZM189.625 428.917L177.833 420.833C177.166 420.416 176.833 419.805 176.833 419C176.833 418.195 177.166 417.584 177.833 417.167L189.625 409.042C190.347 408.569 191.111 408.541 191.917 408.958C192.722 409.375 193.125 410.028 193.125 410.917V427.083C193.125 427.972 192.736 428.625 191.958 429.042C191.181 429.459 190.403 429.417 189.625 428.917ZM188.708 422.917V415.083L182.958 419L188.708 422.917Z" fill="white"/>
<rect x="240" y="399" width="40" height="40" rx="7" fill="#19191A"/>
<path d="M270.917 431.292C270.25 431.292 269.715 431.077 269.312 430.646C268.909 430.215 268.708 429.681 268.708 429.042V408.917C268.708 408.306 268.916 407.785 269.333 407.354C269.75 406.923 270.278 406.708 270.917 406.708C271.528 406.708 272.048 406.923 272.479 407.354C272.91 407.785 273.125 408.306 273.125 408.917V429.042C273.125 429.681 272.91 430.215 272.479 430.646C272.048 431.077 271.528 431.292 270.917 431.292ZM250.375 428.917C249.597 429.417 248.819 429.459 248.042 429.042C247.264 428.625 246.875 427.972 246.875 427.083V410.917C246.875 410.028 247.278 409.375 248.083 408.958C248.889 408.541 249.653 408.569 250.375 409.042L262.208 417.167C262.847 417.584 263.167 418.195 263.167 419C263.167 419.805 262.847 420.416 262.208 420.833L250.375 428.917ZM251.292 422.917L257.042 419L251.292 415.083V422.917Z" fill="white"/>
</svg>
