<svg width="223" height="223" viewBox="0 0 223 223" fill="none" xmlns="http://www.w3.org/2000/svg">
<path fill-rule="evenodd" clip-rule="evenodd" d="M185.382 55.526C185.382 43.253 175.432 33.304 163.159 33.304C135.103 33.304 87.119 33.304 59.063 33.304C46.79 33.304 36.841 43.253 36.841 55.526C36.841 85.107 36.841 137.116 36.841 166.696C36.841 178.969 46.79 188.918 59.063 188.918C87.119 188.918 135.103 188.918 163.159 188.918C175.432 188.918 185.382 178.969 185.382 166.696C185.382 137.116 185.382 85.107 185.382 55.526Z" stroke="white" stroke-width="25" stroke-miterlimit="1.5" stroke-linecap="round" stroke-linejoin="round"/>
<path fill-rule="evenodd" clip-rule="evenodd" d="M40.967 160.33L78.691 107.28L105.511 145.299L136.457 84.291L185.382 158.856L166.828 181.907L53.336 188.918L40.967 160.33Z" fill="white"/>
</svg>
