<svg width="40" height="40" viewBox="0 0 40 40" fill="none" xmlns="http://www.w3.org/2000/svg">
<path d="M21.792 29.583L13.75 21.5C13.528 21.3053 13.3613 21.076 13.25 20.812C13.1387 20.5487 13.083 20.264 13.083 19.958C13.083 19.6807 13.1387 19.403 13.25 19.125C13.3613 18.847 13.528 18.611 13.75 18.417L21.833 10.333C22.2497 9.91634 22.7637 9.70801 23.375 9.70801C23.9863 9.70801 24.514 9.91634 24.958 10.333C25.3747 10.7497 25.576 11.2707 25.562 11.896C25.5487 12.5207 25.3337 13.0413 24.917 13.458L18.417 19.958L24.958 26.5C25.3747 26.9167 25.583 27.4307 25.583 28.042C25.583 28.6527 25.3747 29.1663 24.958 29.583C24.514 29.9997 23.9793 30.208 23.354 30.208C22.7293 30.208 22.2087 29.9997 21.792 29.583Z" fill="white"/>
</svg>
