<svg width="223" height="223" viewBox="0 0 223 223" fill="none" xmlns="http://www.w3.org/2000/svg">
<path fill-rule="evenodd" clip-rule="evenodd" d="M110.65 11.572H33.333C27.44 11.572 21.787 13.913 17.62 18.081C13.452 22.248 11.111 27.901 11.111 33.794V111.111H110.65V11.572Z" fill="white"/>
<path fill-rule="evenodd" clip-rule="evenodd" d="M110.65 110.878H11.111V188.194C11.111 194.088 13.452 199.74 17.62 203.908C21.787 208.075 27.44 210.417 33.333 210.417H110.65V110.878Z" fill="white" fill-opacity="0.7"/>
<path fill-rule="evenodd" clip-rule="evenodd" d="M210.189 110.878H110.65V210.417H187.967C193.86 210.417 199.513 208.075 203.68 203.908C207.848 199.74 210.189 194.088 210.189 188.194V110.878Z" fill="white"/>
<path fill-rule="evenodd" clip-rule="evenodd" d="M210.189 33.794C210.189 27.901 207.848 22.248 203.68 18.081C199.513 13.913 193.86 11.572 187.967 11.572H110.65V111.111H210.189V33.794Z" fill="white" fill-opacity="0.7"/>
</svg>
