<svg width="40" height="40" viewBox="0 0 40 40" fill="none" xmlns="http://www.w3.org/2000/svg">
<path d="M8.083 32.292H9.542L26.25 15.5L24.792 14L8.083 30.792V32.292ZM33 13.542L26.75 7.333L27.75 6.333C28.6113 5.44433 29.653 4.993 30.875 4.979C32.097 4.965 33.1387 5.37467 34 6.208L34.833 7.083C35.5557 7.77767 35.882 8.57633 35.812 9.479C35.7427 10.3817 35.3887 11.1387 34.75 11.75L33 13.542ZM31.042 15.458L10.875 35.625H4.667V29.417L24.833 9.292L31.042 15.458ZM25.583 14.792L24.792 14L26.25 15.5L25.583 14.792Z" fill="white"/>
</svg>
