<svg width="40" height="40" viewBox="0 0 40 40" fill="none" xmlns="http://www.w3.org/2000/svg">
<path d="M28 22.5C27.5833 22.0833 27.368 21.5763 27.354 20.979C27.34 20.3817 27.5553 19.861 28 19.417L30.417 17H21C20.3887 17 19.8747 16.7917 19.458 16.375C19.0413 15.9583 18.833 15.4307 18.833 14.792C18.833 14.1527 19.0413 13.6247 19.458 13.208C19.8747 12.7913 20.3887 12.583 21 12.583H30.417L28 10.167C27.5553 9.72233 27.34 9.20133 27.354 8.604C27.368 8.00667 27.5833 7.49967 28 7.083C28.4447 6.611 28.9723 6.375 29.583 6.375C30.1943 6.375 30.6943 6.59733 31.083 7.042L37.292 13.25C37.486 13.472 37.6457 13.715 37.771 13.979C37.8957 14.243 37.958 14.514 37.958 14.792C37.958 15.0693 37.8957 15.347 37.771 15.625C37.6457 15.903 37.486 16.139 37.292 16.333L31.083 22.542C30.6663 22.986 30.1593 23.208 29.562 23.208C28.9653 23.208 28.4447 22.972 28 22.5ZM8.91701 32.917L2.70801 26.708C2.51401 26.5413 2.36134 26.3193 2.25001 26.042C2.13867 25.764 2.08301 25.486 2.08301 25.208C2.08301 24.9307 2.13867 24.653 2.25001 24.375C2.36134 24.097 2.51401 23.847 2.70801 23.625L8.95801 17.417C9.37467 17.0003 9.87467 16.792 10.458 16.792C11.0413 16.792 11.5553 17.014 12 17.458C12.4167 17.8747 12.632 18.3887 12.646 19C12.66 19.6113 12.4447 20.1253 12 20.542L9.58301 22.958H19C19.6113 22.958 20.139 23.1733 20.583 23.604C21.0277 24.0347 21.25 24.5557 21.25 25.167C21.25 25.8337 21.0277 26.3683 20.583 26.771C20.139 27.1737 19.6113 27.375 19 27.375H9.58301L12 29.875C12.4447 30.2917 12.66 30.7987 12.646 31.396C12.632 31.9933 12.4167 32.5003 12 32.917C11.5553 33.361 11.0347 33.583 10.438 33.583C9.84067 33.583 9.33367 33.361 8.91701 32.917Z" fill="white"/>
</svg>
