<svg width="40" height="40" viewBox="0 0 40 40" fill="none" xmlns="http://www.w3.org/2000/svg">
<path d="M8.20799 36.208C6.98599 36.208 5.94433 35.7777 5.08299 34.917C4.22233 34.0557 3.79199 33.014 3.79199 31.792V8.208C3.79199 6.986 4.22233 5.93733 5.08299 5.062C5.94433 4.18733 6.98599 3.75 8.20799 3.75H31.792C33.014 3.75 34.0627 4.18733 34.938 5.062C35.8127 5.93733 36.25 6.986 36.25 8.208V31.792C36.25 33.014 35.8127 34.0557 34.938 34.917C34.0627 35.7777 33.014 36.208 31.792 36.208H8.20799ZM8.20799 31.792H31.792V8.208H8.20799V31.792ZM8.20799 8.208V31.792V8.208ZM11.625 18.333H18.333V11.625H11.625V18.333ZM21.667 18.333H28.375V11.625H21.667V18.333ZM11.625 28.375H18.333V21.667H11.625V28.375ZM21.667 28.375H28.375V21.667H21.667V28.375Z" fill="white"/>
</svg>
