<svg width="40" height="40" viewBox="0 0 40 40" fill="none" xmlns="http://www.w3.org/2000/svg">
<path d="M33.667 20.208C33.1943 20.208 32.729 20.0347 32.271 19.688C31.8123 19.3407 31.5137 18.917 31.375 18.417C31.2637 18.0557 31.1387 17.7154 31 17.396C30.8613 17.0767 30.6947 16.7504 30.5 16.417C30.278 15.9444 30.2017 15.4374 30.271 14.896C30.3403 14.354 30.5693 13.9027 30.958 13.542C31.514 13.0694 32.132 12.854 32.812 12.896C33.4927 12.9374 33.9997 13.2637 34.333 13.875C34.639 14.4864 34.917 15.0907 35.167 15.688C35.417 16.2847 35.639 16.9304 35.833 17.625C35.9997 18.2917 35.868 18.889 35.438 19.417C35.0073 19.9444 34.417 20.208 33.667 20.208ZM21.875 35.667C21.875 35.2224 22.0417 34.7777 22.375 34.333C22.7083 33.889 23.139 33.5557 23.667 33.333C24.0003 33.3057 24.3197 33.2364 24.625 33.125C24.9303 33.0137 25.236 32.8194 25.542 32.542C26.042 32.3194 26.5627 32.2427 27.104 32.312C27.646 32.382 28.0837 32.5974 28.417 32.958C28.9443 33.514 29.1803 34.132 29.125 34.812C29.0697 35.4927 28.7363 35.986 28.125 36.292C27.5417 36.6254 26.9443 36.924 26.333 37.188C25.7223 37.4514 25.0837 37.6664 24.417 37.833C23.7503 37.9997 23.16 37.868 22.646 37.438C22.132 37.0074 21.875 36.417 21.875 35.667ZM31 30.417C30.6387 30.111 30.4233 29.6664 30.354 29.083C30.2847 28.4997 30.375 27.9444 30.625 27.417C30.8197 27.139 30.9653 26.8474 31.062 26.542C31.1593 26.236 31.2637 25.9027 31.375 25.542C31.5137 25.0694 31.7983 24.6594 32.229 24.312C32.6597 23.9654 33.139 23.792 33.667 23.792C34.389 23.792 34.9723 24.042 35.417 24.542C35.861 25.042 35.972 25.6254 35.75 26.292C35.5553 26.986 35.34 27.6527 35.104 28.292C34.868 28.9307 34.5973 29.514 34.292 30.042C33.986 30.6807 33.4927 31.0417 32.812 31.125C32.132 31.2084 31.528 30.9724 31 30.417ZM15.708 37.708C12.208 36.764 9.361 34.8474 7.167 31.958C4.97233 29.0694 3.875 25.75 3.875 22C3.875 17.6114 5.34733 13.8684 8.292 10.771C11.236 7.67369 14.8747 6.01403 19.208 5.79203H19.708L18.625 4.70803C18.403 4.29136 18.292 3.82636 18.292 3.31303C18.292 2.79903 18.514 2.33369 18.958 1.91703C19.3747 1.47236 19.8887 1.25703 20.5 1.27103C21.1113 1.28503 21.639 1.50036 22.083 1.91703L26.583 6.41703C26.7777 6.63903 26.9373 6.88203 27.062 7.14603C27.1873 7.41003 27.25 7.69469 27.25 8.00003C27.25 8.27803 27.1873 8.54903 27.062 8.81303C26.9373 9.07636 26.7777 9.30536 26.583 9.50003L22.083 14C21.639 14.4447 21.1043 14.667 20.479 14.667C19.8543 14.667 19.3473 14.4447 18.958 14C18.514 13.6114 18.271 13.16 18.229 12.646C18.1877 12.132 18.278 11.6807 18.5 11.292L19.583 10.25H19.125C15.9583 10.528 13.361 11.778 11.333 14C9.30567 16.222 8.292 18.8887 8.292 22C8.292 24.6947 9.04867 27.0627 10.562 29.104C12.076 31.146 14.0693 32.542 16.542 33.292C17.014 33.486 17.4237 33.7984 17.771 34.229C18.1183 34.6597 18.292 35.139 18.292 35.667C18.292 36.4444 18.028 37.0347 17.5 37.438C16.972 37.8407 16.3747 37.9307 15.708 37.708Z" fill="white"/>
</svg>
