<svg width="40" height="40" viewBox="0 0 40 40" fill="none" xmlns="http://www.w3.org/2000/svg">
<path d="M8.20799 36.208C6.98599 36.208 5.94433 35.7777 5.08299 34.917C4.22233 34.0557 3.79199 33.014 3.79199 31.792V8.208C3.79199 6.986 4.22233 5.93733 5.08299 5.062C5.94433 4.18733 6.98599 3.75 8.20799 3.75H27.083C27.6943 3.75 28.2777 3.868 28.833 4.104C29.389 4.34 29.8613 4.66633 30.25 5.083L34.917 9.75C35.3337 10.1387 35.66 10.611 35.896 11.167C36.132 11.7223 36.25 12.3057 36.25 12.917V31.792C36.25 33.014 35.8127 34.0557 34.938 34.917C34.0627 35.7777 33.014 36.208 31.792 36.208H8.20799ZM31.792 13L27 8.208H8.20799V31.792H31.792V13ZM20 29.458C21.25 29.458 22.3263 29.0137 23.229 28.125C24.1317 27.2363 24.583 26.167 24.583 24.917C24.583 23.639 24.1387 22.5557 23.25 21.667C22.3613 20.7777 21.278 20.333 20 20.333C18.75 20.333 17.6737 20.7707 16.771 21.646C15.8683 22.5207 15.417 23.597 15.417 24.875C15.417 26.153 15.8613 27.2363 16.75 28.125C17.6387 29.0137 18.722 29.458 20 29.458ZM12.375 16.417H23C23.6387 16.417 24.1663 16.2087 24.583 15.792C24.9997 15.3753 25.208 14.8613 25.208 14.25V12.375C25.208 11.7637 24.9997 11.2497 24.583 10.833C24.1663 10.4163 23.6387 10.208 23 10.208H12.375C11.7637 10.208 11.2497 10.4163 10.833 10.833C10.4163 11.2497 10.208 11.7637 10.208 12.375V14.25C10.208 14.8613 10.4163 15.3753 10.833 15.792C11.2497 16.2087 11.7637 16.417 12.375 16.417ZM8.20799 13V31.792V8.208V13Z" fill="white"/>
</svg>
