<svg width="40" height="40" viewBox="0 0 40 40" fill="none" xmlns="http://www.w3.org/2000/svg">
<path d="M30.167 37.875H9.83299C8.66633 37.875 7.63866 37.4443 6.74999 36.583C5.86133 35.7223 5.41699 34.6807 5.41699 33.458V6.54201C5.41699 5.31934 5.86133 4.27067 6.74999 3.39601C7.63866 2.52067 8.66633 2.08301 9.83299 2.08301H30.167C31.361 2.08301 32.4027 2.52067 33.292 3.39601C34.1807 4.27067 34.625 5.31934 34.625 6.54201V33.458C34.625 34.6807 34.1807 35.7223 33.292 36.583C32.4027 37.4443 31.361 37.875 30.167 37.875ZM9.83299 33.458H30.167V6.54201H9.83299V33.458ZM9.83299 33.458V6.54201V33.458Z" fill="white"/>
</svg>
