<svg width="40" height="40" viewBox="0 0 40 40" fill="none" xmlns="http://www.w3.org/2000/svg">
<path d="M5.99999 15.667C5.33333 15.667 4.79866 15.4587 4.39599 15.042C3.99333 14.6253 3.79199 14.0973 3.79199 13.458V5.958C3.79199 5.34733 4.00033 4.82667 4.41699 4.396C4.83366 3.96533 5.34733 3.75 5.95799 3.75H13.458C14.0973 3.75 14.6253 3.96533 15.042 4.396C15.4587 4.82667 15.667 5.34733 15.667 5.958C15.667 6.59733 15.4587 7.13233 15.042 7.563C14.6253 7.993 14.0973 8.208 13.458 8.208H11.333L14.75 11.625C15.1947 12.0697 15.41 12.5907 15.396 13.188C15.382 13.7847 15.1667 14.2913 14.75 14.708C14.3333 15.1527 13.8127 15.375 13.188 15.375C12.5627 15.375 12.0417 15.1527 11.625 14.708L8.20799 11.333V13.458C8.20799 14.0973 7.99266 14.6253 7.56199 15.042C7.13199 15.4587 6.61133 15.667 5.99999 15.667ZM25.292 14.708C24.8473 14.2913 24.625 13.7777 24.625 13.167C24.625 12.5557 24.8473 12.0277 25.292 11.583L28.667 8.208H26.542C25.9027 8.208 25.3747 7.993 24.958 7.563C24.5413 7.13233 24.333 6.59733 24.333 5.958C24.333 5.31933 24.5413 4.79167 24.958 4.375C25.3747 3.95833 25.9027 3.75 26.542 3.75H34.042C34.6527 3.75 35.1733 3.96533 35.604 4.396C36.0347 4.82667 36.25 5.34733 36.25 5.958V13.458C36.25 14.0973 36.0347 14.6253 35.604 15.042C35.1733 15.4587 34.6527 15.667 34.042 15.667C33.4027 15.667 32.868 15.4587 32.438 15.042C32.0073 14.6253 31.792 14.0973 31.792 13.458V11.333L28.375 14.75C27.9303 15.1947 27.4093 15.403 26.812 15.375C26.2153 15.347 25.7087 15.1247 25.292 14.708ZM26.542 36.208C25.9027 36.208 25.3747 35.9997 24.958 35.583C24.5413 35.1663 24.333 34.6387 24.333 34C24.333 33.3887 24.5413 32.868 24.958 32.438C25.3747 32.0073 25.9027 31.792 26.542 31.792H28.667L25.25 28.375C24.8053 27.9303 24.597 27.4027 24.625 26.792C24.653 26.1807 24.889 25.6667 25.333 25.25C25.7223 24.8333 26.2223 24.625 26.833 24.625C27.4443 24.625 27.9723 24.8333 28.417 25.25L31.792 28.667V26.542C31.792 25.9027 32.0073 25.3747 32.438 24.958C32.868 24.5413 33.4027 24.333 34.042 24.333C34.6807 24.333 35.2083 24.5413 35.625 24.958C36.0417 25.3747 36.25 25.9027 36.25 26.542V34.042C36.25 34.6527 36.0347 35.1663 35.604 35.583C35.1733 35.9997 34.6527 36.208 34.042 36.208H26.542ZM5.95799 36.208C5.34733 36.208 4.83366 35.9997 4.41699 35.583C4.00033 35.1663 3.79199 34.6527 3.79199 34.042V26.542C3.79199 25.9027 4.00033 25.3747 4.41699 24.958C4.83366 24.5413 5.36133 24.333 5.99999 24.333C6.61133 24.333 7.13199 24.5413 7.56199 24.958C7.99266 25.3747 8.20799 25.9027 8.20799 26.542V28.667L11.667 25.208C12.0837 24.7913 12.6043 24.59 13.229 24.604C13.8543 24.618 14.3753 24.8193 14.792 25.208C15.2087 25.6247 15.417 26.1457 15.417 26.771C15.417 27.3957 15.2087 27.9163 14.792 28.333L11.333 31.792H13.458C14.0973 31.792 14.6253 32.0073 15.042 32.438C15.4587 32.868 15.667 33.3887 15.667 34C15.667 34.6667 15.4587 35.2013 15.042 35.604C14.6253 36.0067 14.0973 36.208 13.458 36.208H5.95799Z" fill="white"/>
</svg>
