<svg width="40" height="40" viewBox="0 0 40 40" fill="none" xmlns="http://www.w3.org/2000/svg">
<path d="M22.208 20C21.5693 20 21.0417 19.7917 20.625 19.375C20.2083 18.9583 20 18.4307 20 17.792V7.79201C20 7.18067 20.2153 6.65267 20.646 6.20801C21.0767 5.76401 21.5973 5.54201 22.208 5.54201C22.8193 5.54201 23.3473 5.76401 23.792 6.20801C24.236 6.65267 24.458 7.18067 24.458 7.79201V12.458L33.208 3.70801C33.6247 3.29134 34.1387 3.08301 34.75 3.08301C35.3613 3.08301 35.8753 3.29134 36.292 3.70801C36.7087 4.12467 36.917 4.63867 36.917 5.25001C36.917 5.86134 36.7087 6.37534 36.292 6.79201L27.542 15.542H32.208C32.8193 15.542 33.3473 15.764 33.792 16.208C34.236 16.6527 34.458 17.1807 34.458 17.792C34.458 18.4027 34.236 18.9233 33.792 19.354C33.3473 19.7847 32.8193 20 32.208 20H22.208ZM3.70801 36.292C3.29134 35.8753 3.08301 35.3613 3.08301 34.75C3.08301 34.1387 3.29134 33.6247 3.70801 33.208L12.5 24.417H7.79201C7.18067 24.417 6.65967 24.2017 6.22901 23.771C5.79834 23.3403 5.58301 22.8193 5.58301 22.208C5.58301 21.5973 5.79834 21.0767 6.22901 20.646C6.65967 20.2153 7.18067 20 7.79201 20H17.792C18.4307 20 18.9583 20.2083 19.375 20.625C19.7917 21.0417 20 21.5693 20 22.208V32.208C20 32.8193 19.7847 33.3403 19.354 33.771C18.9233 34.2017 18.4027 34.417 17.792 34.417C17.1807 34.417 16.6597 34.2017 16.229 33.771C15.7983 33.3403 15.583 32.8193 15.583 32.208V27.5L6.79201 36.292C6.37534 36.7087 5.86134 36.917 5.25001 36.917C4.63867 36.917 4.12467 36.7087 3.70801 36.292Z" fill="white"/>
</svg>
