<svg width="40" height="40" viewBox="0 0 40 40" fill="none" xmlns="http://www.w3.org/2000/svg">
<path d="M31.375 34.75L21.917 25.292C21.0837 25.8753 20.1253 26.3473 19.042 26.708C17.9587 27.0693 16.792 27.25 15.542 27.25C12.264 27.25 9.507 26.125 7.271 23.875C5.035 21.625 3.917 18.889 3.917 15.667C3.917 12.4443 5.035 9.715 7.271 7.479C9.507 5.243 12.236 4.125 15.458 4.125C18.6807 4.125 21.41 5.25 23.646 7.5C25.882 9.75 27 12.4723 27 15.667C27 16.9723 26.8263 18.146 26.479 19.188C26.1317 20.2293 25.6387 21.1943 25 22.083L34.583 31.667C34.9997 32.0837 35.208 32.5973 35.208 33.208C35.208 33.8193 34.986 34.3473 34.542 34.792C34.1253 35.2087 33.6043 35.417 32.979 35.417C32.3543 35.417 31.8197 35.1947 31.375 34.75ZM15.458 22.833C17.486 22.833 19.1807 22.1457 20.542 20.771C21.9027 19.3957 22.583 17.708 22.583 15.708C22.583 13.6807 21.9027 11.9793 20.542 10.604C19.1807 9.22933 17.486 8.542 15.458 8.542C13.4307 8.542 11.7363 9.22933 10.375 10.604C9.01367 11.9793 8.333 13.6807 8.333 15.708C8.333 17.708 9.01367 19.3957 10.375 20.771C11.7363 22.1457 13.4307 22.833 15.458 22.833ZM12.625 17.083C12.2363 17.083 11.91 16.9373 11.646 16.646C11.382 16.354 11.25 16.0137 11.25 15.625C11.25 15.2363 11.389 14.91 11.667 14.646C11.9443 14.382 12.2777 14.25 12.667 14.25H18.25C18.6387 14.25 18.965 14.389 19.229 14.667C19.493 14.9443 19.625 15.2777 19.625 15.667C19.625 16.0277 19.486 16.354 19.208 16.646C18.9307 16.9373 18.5973 17.083 18.208 17.083H12.625Z" fill="white"/>
</svg>
