<svg width="40" height="40" viewBox="0 0 40 40" fill="none" xmlns="http://www.w3.org/2000/svg">
<path d="M5.99999 14.75C5.36133 14.75 4.83366 14.5487 4.41699 14.146C4.00033 13.7433 3.79199 13.2087 3.79199 12.542V8.208C3.79199 6.986 4.22233 5.93733 5.08299 5.062C5.94433 4.18733 6.98599 3.75 8.20799 3.75H12.583C13.2223 3.75 13.7433 3.96533 14.146 4.396C14.5487 4.82667 14.75 5.34733 14.75 5.958C14.75 6.59733 14.5487 7.13233 14.146 7.563C13.7433 7.993 13.2223 8.208 12.583 8.208H8.20799V12.542C8.20799 13.2087 7.98599 13.7433 7.54199 14.146C7.09733 14.5487 6.58333 14.75 5.99999 14.75ZM8.20799 36.208C6.98599 36.208 5.94433 35.7777 5.08299 34.917C4.22233 34.0557 3.79199 33.014 3.79199 31.792V27.417C3.79199 26.7777 4.00033 26.2567 4.41699 25.854C4.83366 25.4513 5.34733 25.25 5.95799 25.25C6.59733 25.25 7.13199 25.4513 7.56199 25.854C7.99266 26.2567 8.20799 26.7777 8.20799 27.417V31.792H12.583C13.2223 31.792 13.7433 32.014 14.146 32.458C14.5487 32.9027 14.75 33.4167 14.75 34C14.75 34.6387 14.5487 35.1663 14.146 35.583C13.7433 35.9997 13.2223 36.208 12.583 36.208H8.20799ZM27.458 36.208C26.7913 36.208 26.2567 35.9997 25.854 35.583C25.4513 35.1663 25.25 34.6527 25.25 34.042C25.25 33.4027 25.4513 32.868 25.854 32.438C26.2567 32.0073 26.7913 31.792 27.458 31.792H31.792V27.417C31.792 26.7777 32.014 26.2567 32.458 25.854C32.9027 25.4513 33.4307 25.25 34.042 25.25C34.6807 25.25 35.2083 25.4513 35.625 25.854C36.0417 26.2567 36.25 26.7777 36.25 27.417V31.792C36.25 33.014 35.8127 34.0557 34.938 34.917C34.0627 35.7777 33.014 36.208 31.792 36.208H27.458ZM34.042 14.75C33.4027 14.75 32.868 14.5487 32.438 14.146C32.0073 13.7433 31.792 13.2087 31.792 12.542V8.208H27.458C26.7913 8.208 26.2567 7.986 25.854 7.542C25.4513 7.09733 25.25 6.56933 25.25 5.958C25.25 5.31933 25.4513 4.79167 25.854 4.375C26.2567 3.95833 26.7913 3.75 27.458 3.75H31.792C33.014 3.75 34.0627 4.18733 34.938 5.062C35.8127 5.93733 36.25 6.986 36.25 8.208V12.542C36.25 13.2087 36.0347 13.7433 35.604 14.146C35.1733 14.5487 34.6527 14.75 34.042 14.75Z" fill="white"/>
</svg>
