<svg width="40" height="40" viewBox="0 0 40 40" fill="none" xmlns="http://www.w3.org/2000/svg">
<path d="M6.458 20.208C5.708 20.208 5.111 19.9443 4.667 19.417C4.22234 18.889 4.09734 18.2777 4.292 17.583C4.486 16.9443 4.70134 16.3263 4.938 15.729C5.174 15.1317 5.45867 14.5277 5.792 13.917C6.12534 13.3057 6.62534 12.9723 7.292 12.917C7.95867 12.861 8.56967 13.083 9.125 13.583C9.48634 13.9163 9.71534 14.354 9.812 14.896C9.90934 15.4373 9.833 15.9443 9.583 16.417C9.389 16.6943 9.22234 17.0277 9.083 17.417C8.94434 17.8057 8.84734 18.1527 8.792 18.458C8.56934 18.986 8.24967 19.4097 7.833 19.729C7.41634 20.0483 6.958 20.208 6.458 20.208ZM15.667 37.792C15.0003 37.6253 14.3683 37.424 13.771 37.188C13.1737 36.9513 12.611 36.6663 12.083 36.333C11.4163 35.9997 11.0483 35.486 10.979 34.792C10.9097 34.0973 11.1667 33.4583 11.75 32.875C12.0833 32.5697 12.507 32.382 13.021 32.312C13.535 32.2427 14.028 32.3193 14.5 32.542C14.75 32.764 15.0557 32.9307 15.417 33.042C15.7777 33.1527 16.1387 33.2777 16.5 33.417C16.972 33.5557 17.3747 33.8333 17.708 34.25C18.0413 34.6667 18.208 35.125 18.208 35.625C18.208 36.403 17.9443 37.0003 17.417 37.417C16.889 37.8337 16.3057 37.9587 15.667 37.792ZM5.833 30.083C5.47234 29.5277 5.18067 28.9443 4.958 28.333C4.736 27.7223 4.52767 27.0697 4.333 26.375C4.139 25.7083 4.25734 25.111 4.688 24.583C5.118 24.0557 5.722 23.792 6.5 23.792C6.91667 23.792 7.34734 23.9517 7.792 24.271C8.236 24.5903 8.55534 25 8.75 25.5C8.80534 25.8613 8.89567 26.2153 9.021 26.562C9.14567 26.9093 9.30534 27.2497 9.5 27.583C9.75 28.0277 9.83334 28.5277 9.75 29.083C9.66667 29.639 9.45834 30.0973 9.125 30.458C8.56967 30.986 7.96534 31.2153 7.312 31.146C6.65934 31.0767 6.16634 30.7223 5.833 30.083ZM24.375 37.708C23.6803 37.9027 23.076 37.7987 22.562 37.396C22.0487 36.9933 21.792 36.403 21.792 35.625C21.792 35.2083 21.9517 34.7777 22.271 34.333C22.5903 33.889 23.014 33.5697 23.542 33.375C25.9587 32.5417 27.9377 31.111 29.479 29.083C31.021 27.0557 31.792 24.6947 31.792 22C31.792 18.8887 30.778 16.222 28.75 14C26.722 11.778 24.1247 10.528 20.958 10.25H20.542L21.625 11.292C21.7917 11.6807 21.861 12.132 21.833 12.646C21.8057 13.16 21.5837 13.6113 21.167 14C20.7223 14.4447 20.1943 14.66 19.583 14.646C18.9723 14.632 18.4447 14.4167 18 14L13.542 9.5C13.3193 9.30533 13.1527 9.07633 13.042 8.813C12.9307 8.549 12.875 8.278 12.875 8C12.875 7.69467 12.9307 7.41 13.042 7.146C13.1527 6.882 13.3193 6.639 13.542 6.417L18 1.917C18.4447 1.47233 18.9653 1.25 19.562 1.25C20.1593 1.25 20.6803 1.47233 21.125 1.917C21.5417 2.33367 21.7777 2.81267 21.833 3.354C21.889 3.896 21.778 4.34733 21.5 4.708L20.375 5.792H20.875C25.2083 6.014 28.854 7.67367 31.812 10.771C34.7707 13.8683 36.25 17.6113 36.25 22C36.25 25.722 35.132 29.0137 32.896 31.875C30.66 34.7363 27.8197 36.6807 24.375 37.708Z" fill="white"/>
</svg>
