<svg width="40" height="40" viewBox="0 0 40 40" fill="none" xmlns="http://www.w3.org/2000/svg">
<path d="M20 25.917C19.3887 25.917 18.868 25.6947 18.438 25.25C18.0073 24.8053 17.792 24.2913 17.792 23.708V11.792L14.792 14.792C14.3753 15.1807 13.8683 15.382 13.271 15.396C12.6737 15.41 12.1667 15.1947 11.75 14.75C11.3053 14.3333 11.083 13.8193 11.083 13.208C11.083 12.5973 11.3053 12.0557 11.75 11.583L18.458 4.875C18.6527 4.70833 18.889 4.56267 19.167 4.438C19.4443 4.31267 19.722 4.25 20 4.25C20.278 4.25 20.5557 4.31267 20.833 4.438C21.111 4.56267 21.3473 4.70833 21.542 4.875L28.292 11.667C28.736 12.0837 28.9513 12.5973 28.938 13.208C28.924 13.8193 28.7087 14.3333 28.292 14.75C27.8753 15.1667 27.3683 15.375 26.771 15.375C26.1737 15.375 25.6527 15.1527 25.208 14.708L22.208 11.792V23.708C22.208 24.2913 21.9997 24.8053 21.583 25.25C21.1663 25.6947 20.6387 25.917 20 25.917ZM8.70799 35.625C7.54133 35.625 6.51366 35.1943 5.62499 34.333C4.73633 33.4723 4.29199 32.417 4.29199 31.167V25.625C4.29199 25.0417 4.51399 24.5277 4.95799 24.083C5.40266 23.639 5.93066 23.417 6.54199 23.417C7.18066 23.417 7.70133 23.639 8.10399 24.083C8.50666 24.5277 8.70799 25.0417 8.70799 25.625V31.167H31.208V25.625C31.208 25.0417 31.4163 24.5277 31.833 24.083C32.2497 23.639 32.7777 23.417 33.417 23.417C34.0557 23.417 34.5833 23.639 35 24.083C35.4167 24.5277 35.625 25.0417 35.625 25.625V31.167C35.625 32.417 35.1807 33.4723 34.292 34.333C33.4027 35.1943 32.3747 35.625 31.208 35.625H8.70799Z" fill="white"/>
</svg>
