<svg width="40" height="40" viewBox="0 0 40 40" fill="none" xmlns="http://www.w3.org/2000/svg">
<path d="M26.792 11.875V8.167H13.208V11.875H8.792V3.75H31.208V11.875H26.792ZM6.458 16.333C6.458 16.333 6.597 16.333 6.875 16.333C7.153 16.333 7.45867 16.333 7.792 16.333H32.25C32.6113 16.333 32.917 16.333 33.167 16.333C33.417 16.333 33.542 16.333 33.542 16.333H31.208H8.792H6.458ZM29.708 21.5C30.264 21.5 30.7293 21.3193 31.104 20.958C31.4793 20.5973 31.667 20.139 31.667 19.583C31.667 19.0277 31.4863 18.5557 31.125 18.167C30.7637 17.7777 30.2913 17.583 29.708 17.583C29.1247 17.583 28.6527 17.7707 28.292 18.146C27.9307 18.5207 27.75 18.9997 27.75 19.583C27.75 20.139 27.9307 20.5973 28.292 20.958C28.6527 21.3193 29.1247 21.5 29.708 21.5ZM26.792 32.667V27.917H13.208V32.667H26.792ZM31.208 36.833H8.792V28.958H2.042V17.75C2.042 16.1387 2.59733 14.7567 3.708 13.604C4.81933 12.4513 6.18067 11.875 7.792 11.875H32.208C33.8473 11.875 35.2153 12.4513 36.312 13.604C37.4093 14.7567 37.958 16.1387 37.958 17.75V28.958H31.208V36.833ZM33.542 24.542V17.75C33.542 17.3887 33.417 17.0623 33.167 16.771C32.917 16.479 32.6113 16.333 32.25 16.333H7.792C7.45867 16.333 7.153 16.472 6.875 16.75C6.597 17.028 6.458 17.3473 6.458 17.708V24.542H8.792V23.458H31.208V24.542H33.542Z" fill="white"/>
</svg>
