<svg width="40" height="40" viewBox="0 0 40 40" fill="none" xmlns="http://www.w3.org/2000/svg">
<path d="M6.542 34.583C5.31933 34.583 4.27767 34.1387 3.417 33.25C2.55567 32.3613 2.125 31.3337 2.125 30.167V9.833C2.125 8.639 2.55567 7.59733 3.417 6.708C4.27767 5.81933 5.31933 5.375 6.542 5.375H33.458C34.6807 5.375 35.7293 5.81933 36.604 6.708C37.4793 7.59733 37.917 8.639 37.917 9.833V30.167C37.917 31.3337 37.4793 32.3613 36.604 33.25C35.7293 34.1387 34.6807 34.583 33.458 34.583H6.542ZM6.542 30.167H33.458V9.833H6.542V30.167ZM6.542 30.167V9.833V30.167Z" fill="white"/>
</svg>
