<svg width="40" height="40" viewBox="0 0 40 40" fill="none" xmlns="http://www.w3.org/2000/svg">
<path d="M20 26.417C22.028 26.417 23.7433 25.7087 25.146 24.292C26.5487 22.8753 27.25 21.167 27.25 19.167C27.25 17.139 26.5417 15.4237 25.125 14.021C23.7083 12.6183 22 11.917 20 11.917C17.972 11.917 16.2567 12.6253 14.854 14.042C13.4513 15.4587 12.75 17.167 12.75 19.167C12.75 21.1943 13.4583 22.9093 14.875 24.312C16.2917 25.7153 18 26.417 20 26.417ZM20 23.042C18.9167 23.042 18 22.66 17.25 21.896C16.5 21.132 16.125 20.2223 16.125 19.167C16.125 18.0837 16.507 17.167 17.271 16.417C18.035 15.667 18.9447 15.292 20 15.292C21.0833 15.292 22 15.674 22.75 16.438C23.5 17.2013 23.875 18.111 23.875 19.167C23.875 20.2503 23.493 21.167 22.729 21.917C21.965 22.667 21.0553 23.042 20 23.042ZM20 32.833C15.972 32.833 12.2983 31.729 8.979 29.521C5.65967 27.3123 3.09733 24.4027 1.292 20.792C1.15267 20.5973 1.05533 20.354 1 20.062C0.944666 19.7707 0.917 19.4723 0.917 19.167C0.917 18.889 0.944666 18.5973 1 18.292C1.05533 17.986 1.15267 17.708 1.292 17.458C3.09733 13.9027 5.65967 11.0207 8.979 8.812C12.2983 6.604 15.972 5.5 20 5.5C24.028 5.5 27.7017 6.604 31.021 8.812C34.3403 11.0207 36.9027 13.9027 38.708 17.458C38.8473 17.708 38.9447 17.979 39 18.271C39.0553 18.5623 39.083 18.861 39.083 19.167C39.083 19.4443 39.0553 19.736 39 20.042C38.9447 20.3473 38.8473 20.5973 38.708 20.792C36.9027 24.4027 34.3403 27.3123 31.021 29.521C27.7017 31.729 24.028 32.833 20 32.833ZM20 28.917C23.3053 28.917 26.3123 28.035 29.021 26.271C31.729 24.507 33.8193 22.139 35.292 19.167C33.8193 16.1943 31.729 13.8263 29.021 12.063C26.3123 10.299 23.3053 9.417 20 9.417C16.6947 9.417 13.6807 10.299 10.958 12.063C8.236 13.8263 6.15267 16.1943 4.708 19.167C6.15267 22.139 8.236 24.507 10.958 26.271C13.6807 28.035 16.6947 28.917 20 28.917Z" fill="white"/>
</svg>
