<svg width="40" height="40" viewBox="0 0 40 40" fill="none" xmlns="http://www.w3.org/2000/svg">
<path d="M20 25.917C21.5833 25.917 23.0277 25.542 24.333 24.792C25.639 24.042 26.653 23.0003 27.375 21.667C26.653 20.3337 25.632 19.285 24.312 18.521C22.9927 17.757 21.5553 17.375 20 17.375C18.4167 17.375 16.9723 17.757 15.667 18.521C14.361 19.285 13.347 20.3337 12.625 21.667C13.347 23.0003 14.3677 24.042 15.687 24.792C17.007 25.542 18.4447 25.917 20 25.917ZM20 28.208C17.75 28.208 15.736 27.597 13.958 26.375C12.1807 25.153 10.903 23.5837 10.125 21.667C10.903 19.7223 12.1807 18.139 13.958 16.917C15.736 15.6943 17.75 15.083 20 15.083C22.25 15.083 24.264 15.7013 26.042 16.938C27.8193 18.174 29.097 19.7503 29.875 21.667C29.097 23.5837 27.8193 25.153 26.042 26.375C24.264 27.597 22.25 28.208 20 28.208ZM20 23.917C19.3887 23.917 18.861 23.6947 18.417 23.25C17.9723 22.8053 17.75 22.2777 17.75 21.667C17.75 21.0557 17.9723 20.5277 18.417 20.083C18.861 19.639 19.3887 19.417 20 19.417C20.6113 19.417 21.139 19.639 21.583 20.083C22.0277 20.5277 22.25 21.0557 22.25 21.667C22.25 22.2777 22.0277 22.8053 21.583 23.25C21.139 23.6947 20.6113 23.917 20 23.917ZM8.292 36.125C7.042 36.125 5.99333 35.7013 5.146 34.854C4.29867 34.0067 3.875 32.958 3.875 31.708V8.292C3.875 7.042 4.29867 5.99333 5.146 5.146C5.99333 4.29867 7.042 3.875 8.292 3.875H31.708C32.958 3.875 34.0067 4.29867 34.854 5.146C35.7013 5.99333 36.125 7.042 36.125 8.292V31.708C36.125 32.958 35.7013 34.0067 34.854 34.854C34.0067 35.7013 32.958 36.125 31.708 36.125H8.292ZM7.792 32.208H32.208V11.125H7.792V32.208Z" fill="white"/>
</svg>
